<svg xmlns="http://www.w3.org/2000/svg" xmlns:xlink="http://www.w3.org/1999/xlink" width="600" zoomAndPan="magnify" viewBox="0 0 450 149.999998" height="200" preserveAspectRatio="xMidYMid meet" version="1.0"><defs><g/><clipPath id="f85030ae12"><path d="M 7.96875 13 L 69 13 L 69 123.605469 L 7.96875 123.605469 Z M 7.96875 13 " clip-rule="nonzero"/></clipPath></defs><path fill="#8cd024" d="M 67.300781 87.046875 C 67.300781 87.046875 65.589844 65.5 84.304688 57.257812 C 103.019531 49.015625 104.738281 41.078125 104.738281 41.078125 C 104.738281 41.078125 121.355469 92.183594 72.046875 90.738281 C 72.046875 90.738281 98.023438 77.863281 99.671875 57.664062 C 99.671875 57.664062 95.914062 76.03125 67.300781 87.046875 " fill-opacity="1" fill-rule="nonzero"/><path fill="#8cd024" d="M 54.664062 103.734375 C 54.664062 103.734375 41.882812 107.679688 34.382812 97.492188 C 26.878906 87.304688 21.855469 87.339844 21.855469 87.339844 C 21.855469 87.339844 50.464844 70.40625 56.25 100.371094 C 56.25 100.371094 44.972656 86.425781 32.550781 88.160156 C 32.550781 88.160156 44.148438 87.945312 54.664062 103.734375 " fill-opacity="1" fill-rule="nonzero"/><g clip-path="url(#f85030ae12)"><path fill="#427a01" d="M 66.609375 122.511719 C 66.980469 101.179688 64.617188 84.335938 60.933594 71.097656 C 53.214844 39.582031 36.351562 28.496094 30.777344 25.613281 C 30.222656 25.316406 29.917969 25.1875 29.917969 25.1875 C 29.292969 24.894531 28.945312 24.769531 28.945312 24.769531 C 55.386719 30.941406 67.308594 67.902344 67.308594 67.902344 C 78.96875 2.859375 7.976562 14.777344 7.976562 14.777344 C 7.976562 14.777344 18.15625 18.621094 25.375 45.046875 C 30.453125 63.621094 46.238281 70.121094 55.164062 72.34375 C 62.222656 100.003906 57.640625 123.5 57.640625 123.5 L 66.609375 122.511719 " fill-opacity="1" fill-rule="nonzero"/></g><g fill="#427a01" fill-opacity="1"><g transform="translate(127.872836, 94.499996)"><g><path d="M 6.515625 -19.59375 C 6.660156 -21.175781 6.742188 -22.4375 6.765625 -23.375 C 6.785156 -24.3125 7.144531 -25.296875 7.84375 -26.328125 C 8.132812 -26.722656 8.351562 -27.347656 8.5 -28.203125 C 8.644531 -29.066406 8.828125 -30.003906 9.046875 -31.015625 C 9.273438 -32.035156 9.585938 -32.914062 9.984375 -33.65625 C 10.128906 -34.039062 10.300781 -34.40625 10.5 -34.75 C 10.695312 -35.101562 10.820312 -35.5 10.875 -35.9375 C 10.914062 -36.382812 11.097656 -36.753906 11.421875 -37.046875 C 11.742188 -37.347656 11.929688 -37.71875 11.984375 -38.15625 C 12.023438 -38.550781 12.070312 -39.003906 12.125 -39.515625 C 12.175781 -40.035156 12.300781 -40.472656 12.5 -40.828125 C 13.1875 -41.910156 13.800781 -43.210938 14.34375 -44.734375 C 14.882812 -46.265625 15.460938 -47.769531 16.078125 -49.25 C 16.703125 -50.726562 17.441406 -51.957031 18.296875 -52.9375 C 19.160156 -53.925781 20.257812 -54.421875 21.59375 -54.421875 C 21.789062 -54.421875 22 -54.421875 22.21875 -54.421875 C 22.445312 -54.421875 22.65625 -54.421875 22.84375 -54.421875 C 23.882812 -54.421875 24.695312 -54.039062 25.28125 -53.28125 C 25.875 -52.519531 26.316406 -51.554688 26.609375 -50.390625 C 26.910156 -49.234375 27.097656 -48.050781 27.171875 -46.84375 C 27.242188 -45.632812 27.28125 -44.585938 27.28125 -43.703125 C 27.28125 -43.066406 27.28125 -42.597656 27.28125 -42.296875 C 27.28125 -42.003906 27.234375 -41.6875 27.140625 -41.34375 C 27.679688 -40.5 28 -39.363281 28.09375 -37.9375 C 28.195312 -36.507812 28.296875 -35.226562 28.390625 -34.09375 C 28.546875 -33.300781 28.722656 -32.546875 28.921875 -31.828125 C 29.117188 -31.117188 29.21875 -30.34375 29.21875 -29.5 C 29.21875 -29.113281 29.203125 -28.722656 29.171875 -28.328125 C 29.148438 -27.929688 29.140625 -27.535156 29.140625 -27.140625 C 29.140625 -25.710938 29.375 -24.378906 29.84375 -23.140625 C 30.3125 -21.910156 31.015625 -20.582031 31.953125 -19.15625 C 31.796875 -18.757812 31.644531 -18.363281 31.5 -17.96875 C 31.351562 -17.570312 31.207031 -17.175781 31.0625 -16.78125 C 31.257812 -16.039062 31.441406 -15.15625 31.609375 -14.125 C 31.785156 -13.09375 31.972656 -12.144531 32.171875 -11.28125 C 32.367188 -10.414062 32.566406 -9.835938 32.765625 -9.546875 C 33.003906 -9.242188 33.195312 -8.6875 33.34375 -7.875 C 33.5 -7.0625 33.632812 -6.195312 33.75 -5.28125 C 33.875 -4.375 34.0625 -3.578125 34.3125 -2.890625 C 34.5625 -2.148438 34.722656 -1.394531 34.796875 -0.625 C 34.867188 0.132812 34.90625 0.9375 34.90625 1.78125 C 34.707031 1.925781 34.507812 2.054688 34.3125 2.171875 C 34.113281 2.296875 33.914062 2.410156 33.71875 2.515625 C 33.226562 2.910156 32.632812 3.453125 31.9375 4.140625 C 31.25 4.828125 30.632812 5.171875 30.09375 5.171875 C 29.75 5.171875 29.476562 4.984375 29.28125 4.609375 C 29.082031 4.242188 28.863281 3.988281 28.625 3.84375 C 27.6875 3.300781 27.066406 2.597656 26.765625 1.734375 C 26.472656 0.867188 26.253906 -0.00390625 26.109375 -0.890625 C 25.960938 -1.679688 25.75 -2.429688 25.46875 -3.140625 C 25.195312 -3.859375 25.0625 -4.6875 25.0625 -5.625 C 25.0625 -5.769531 25.070312 -5.914062 25.09375 -6.0625 C 25.125 -6.207031 25.140625 -6.359375 25.140625 -6.515625 C 25.140625 -6.898438 25.085938 -7.632812 24.984375 -8.71875 C 24.890625 -9.8125 24.734375 -10.960938 24.515625 -12.171875 C 24.296875 -13.378906 24 -14.425781 23.625 -15.3125 C 23.257812 -16.195312 22.828125 -16.640625 22.328125 -16.640625 C 21.941406 -16.640625 21.414062 -16.523438 20.75 -16.296875 C 20.082031 -16.078125 19.476562 -15.894531 18.9375 -15.75 C 18.59375 -15.351562 18.144531 -15.15625 17.59375 -15.15625 C 17.050781 -15.15625 16.585938 -15.007812 16.203125 -14.71875 C 16.003906 -14.570312 15.804688 -14.5 15.609375 -14.5 C 15.453125 -14.5 15.3125 -14.507812 15.1875 -14.53125 C 15.070312 -14.550781 14.941406 -14.585938 14.796875 -14.640625 C 14.597656 -14.640625 14.148438 -14.441406 13.453125 -14.046875 C 12.765625 -13.648438 12.050781 -13.453125 11.3125 -13.453125 C 10.625 -13.453125 10.019531 -12.957031 9.5 -11.96875 C 8.976562 -10.988281 8.53125 -9.804688 8.15625 -8.421875 C 7.789062 -7.046875 7.445312 -5.726562 7.125 -4.46875 C 6.8125 -3.21875 6.507812 -2.320312 6.21875 -1.78125 C 6.113281 -1.53125 5.875 -0.972656 5.5 -0.109375 C 5.132812 0.753906 4.65625 1.578125 4.0625 2.359375 C 3.476562 3.148438 2.789062 3.546875 2 3.546875 C 1.550781 3.546875 1.101562 3.359375 0.65625 2.984375 C 0.21875 2.617188 0 2.238281 0 1.84375 C 0 1.695312 0.0234375 1.578125 0.078125 1.484375 C 0.472656 0.492188 0.878906 -0.601562 1.296875 -1.8125 C 1.710938 -3.019531 2.019531 -4.21875 2.21875 -5.40625 C 2.414062 -6.332031 2.695312 -7.410156 3.0625 -8.640625 C 3.4375 -9.878906 3.796875 -11.140625 4.140625 -12.421875 C 4.484375 -13.703125 4.65625 -14.863281 4.65625 -15.90625 C 4.65625 -16.394531 4.546875 -16.882812 4.328125 -17.375 C 4.109375 -17.875 4 -18.367188 4 -18.859375 C 4 -19.304688 4.191406 -19.53125 4.578125 -19.53125 C 4.773438 -19.53125 4.960938 -19.515625 5.140625 -19.484375 C 5.316406 -19.460938 5.5 -19.453125 5.6875 -19.453125 C 5.84375 -19.453125 6.117188 -19.5 6.515625 -19.59375 Z M 15.15625 -32.015625 C 15.15625 -31.671875 15.15625 -31.335938 15.15625 -31.015625 C 15.15625 -30.703125 15.109375 -30.394531 15.015625 -30.09375 C 14.960938 -29.75 14.726562 -29.171875 14.3125 -28.359375 C 13.894531 -27.546875 13.472656 -26.617188 13.046875 -25.578125 C 12.628906 -24.546875 12.421875 -23.460938 12.421875 -22.328125 C 12.421875 -21.984375 12.445312 -21.601562 12.5 -21.1875 C 12.550781 -20.769531 12.75 -20.5625 13.09375 -20.5625 C 14.375 -20.5625 15.71875 -20.707031 17.125 -21 C 18.53125 -21.300781 19.875 -21.550781 21.15625 -21.75 C 21.695312 -21.988281 22.015625 -22.289062 22.109375 -22.65625 C 22.210938 -23.03125 22.265625 -23.441406 22.265625 -23.890625 C 22.265625 -25.710938 22.003906 -27.796875 21.484375 -30.140625 C 20.960938 -32.484375 20.703125 -34.710938 20.703125 -36.828125 C 20.703125 -37.023438 20.726562 -37.195312 20.78125 -37.34375 C 20.78125 -37.34375 20.78125 -37.328125 20.78125 -37.296875 C 20.78125 -37.273438 20.78125 -37.265625 20.78125 -37.265625 C 20.78125 -37.265625 20.707031 -37.570312 20.5625 -38.1875 C 20.414062 -38.8125 20.242188 -39.441406 20.046875 -40.078125 C 19.847656 -40.722656 19.675781 -41.046875 19.53125 -41.046875 C 19.425781 -41.046875 19.175781 -40.675781 18.78125 -39.9375 C 18.382812 -39.195312 18.023438 -38.40625 17.703125 -37.5625 C 17.390625 -36.726562 17.234375 -36.113281 17.234375 -35.71875 C 17.234375 -34.144531 16.539062 -32.910156 15.15625 -32.015625 Z M 15.15625 -32.015625 "/></g></g></g><g fill="#427a01" fill-opacity="1"><g transform="translate(170.768196, 94.499996)"><g><path d="M 29.28125 -3.765625 C 29.78125 -3.566406 30.03125 -3.273438 30.03125 -2.890625 C 30.03125 -2.535156 29.796875 -2.015625 29.328125 -1.328125 C 28.859375 -0.640625 28.398438 -0.222656 27.953125 -0.078125 C 28.441406 0.265625 28.6875 0.535156 28.6875 0.734375 C 28.6875 0.929688 28.539062 1.164062 28.25 1.4375 C 27.957031 1.707031 27.8125 1.992188 27.8125 2.296875 C 27.8125 2.492188 27.945312 2.640625 28.21875 2.734375 C 28.488281 2.835938 28.625 2.988281 28.625 3.1875 C 28.625 3.476562 28.445312 3.742188 28.09375 3.984375 C 27.75 4.234375 27.578125 4.554688 27.578125 4.953125 C 27.578125 5.148438 27.625 5.332031 27.71875 5.5 C 27.820312 5.675781 27.875 5.835938 27.875 5.984375 C 27.875 6.335938 27.8125 6.660156 27.6875 6.953125 C 27.570312 7.242188 27.488281 7.539062 27.4375 7.84375 C 27.4375 7.9375 27.238281 8.15625 26.84375 8.5 C 26.445312 8.84375 26.25 9.285156 26.25 9.828125 C 26.25 10.328125 26.3125 10.722656 26.4375 11.015625 C 26.5625 11.316406 26.625 11.640625 26.625 11.984375 C 26.625 12.617188 26.472656 13.515625 26.171875 14.671875 C 25.878906 15.835938 25.582031 16.945312 25.28125 18 C 24.988281 19.0625 24.84375 19.765625 24.84375 20.109375 C 24.84375 20.265625 24.867188 20.363281 24.921875 20.40625 C 24.921875 20.851562 24.769531 21.382812 24.46875 22 C 24.175781 22.613281 23.878906 23.179688 23.578125 23.703125 C 23.285156 24.222656 23.140625 24.582031 23.140625 24.78125 C 23.140625 24.925781 23.1875 25.070312 23.28125 25.21875 C 23.382812 25.363281 23.4375 25.507812 23.4375 25.65625 C 23.4375 25.90625 23.335938 26.128906 23.140625 26.328125 C 22.941406 26.523438 22.84375 26.75 22.84375 27 C 22.800781 27.882812 22.507812 28.78125 21.96875 29.6875 C 21.425781 30.601562 21.15625 31.378906 21.15625 32.015625 C 21.15625 32.117188 21.175781 32.234375 21.21875 32.359375 C 21.269531 32.484375 21.296875 32.59375 21.296875 32.6875 C 21.296875 32.976562 21.171875 33.257812 20.921875 33.53125 C 20.679688 33.800781 20.5625 34.085938 20.5625 34.390625 C 20.5625 36.066406 19.976562 37.410156 18.8125 38.421875 C 17.65625 39.429688 16.316406 39.9375 14.796875 39.9375 C 14.398438 39.9375 13.988281 39.898438 13.5625 39.828125 C 13.144531 39.753906 12.738281 39.617188 12.34375 39.421875 C 11.0625 38.523438 9.953125 37.679688 9.015625 36.890625 C 8.078125 36.109375 7.363281 35.050781 6.875 33.71875 C 6.382812 32.382812 6.140625 30.460938 6.140625 27.953125 C 6.140625 27.117188 6.222656 26.28125 6.390625 25.4375 C 6.566406 24.601562 6.65625 23.765625 6.65625 22.921875 C 6.65625 22.679688 6.738281 22.175781 6.90625 21.40625 C 7.082031 20.644531 7.304688 19.796875 7.578125 18.859375 C 7.847656 17.921875 8.144531 17.066406 8.46875 16.296875 C 8.789062 15.535156 9.097656 15.054688 9.390625 14.859375 C 9.835938 14.515625 10.082031 14.082031 10.125 13.5625 C 10.175781 13.050781 10.25 12.535156 10.34375 12.015625 C 10.445312 11.492188 10.742188 11.0625 11.234375 10.71875 C 11.335938 10.625 11.410156 10.5 11.453125 10.34375 C 11.503906 10.195312 11.554688 10.078125 11.609375 9.984375 C 11.804688 9.140625 12.101562 8.484375 12.5 8.015625 C 12.894531 7.554688 13.289062 6.929688 13.6875 6.140625 C 14.125 4.554688 15.035156 3.320312 16.421875 2.4375 C 16.515625 2.382812 16.570312 2.3125 16.59375 2.21875 C 16.625 2.125 16.664062 2.050781 16.71875 2 C 16.957031 1.15625 17.347656 0.460938 17.890625 -0.078125 C 18.429688 -0.617188 18.984375 -1.125 19.546875 -1.59375 C 20.117188 -2.0625 20.503906 -2.59375 20.703125 -3.1875 C 20.753906 -3.375 21.015625 -3.789062 21.484375 -4.4375 C 21.953125 -5.082031 22.441406 -5.710938 22.953125 -6.328125 C 23.472656 -6.941406 23.832031 -7.25 24.03125 -7.25 C 24.175781 -7.25 24.398438 -7.195312 24.703125 -7.09375 C 24.898438 -7.632812 25.191406 -8.3125 25.578125 -9.125 C 25.972656 -9.945312 26.332031 -10.785156 26.65625 -11.640625 C 26.976562 -12.503906 27.140625 -13.257812 27.140625 -13.90625 C 27.140625 -14.300781 27.066406 -14.65625 26.921875 -14.96875 C 26.773438 -15.289062 26.703125 -15.601562 26.703125 -15.90625 C 26.703125 -16.289062 26.796875 -16.742188 26.984375 -17.265625 C 27.179688 -17.785156 27.28125 -18.289062 27.28125 -18.78125 C 27.28125 -19.082031 27.253906 -19.390625 27.203125 -19.703125 C 27.160156 -20.023438 27.140625 -20.359375 27.140625 -20.703125 C 27.140625 -21.441406 27.222656 -22.191406 27.390625 -22.953125 C 27.566406 -23.722656 27.65625 -24.503906 27.65625 -25.296875 C 27.65625 -25.691406 27.640625 -26.132812 27.609375 -26.625 C 27.585938 -27.113281 27.429688 -27.359375 27.140625 -27.359375 C 26.890625 -27.359375 26.742188 -27.257812 26.703125 -27.0625 C 26.453125 -26.375 26.113281 -25.84375 25.6875 -25.46875 C 25.269531 -25.101562 24.691406 -24.921875 23.953125 -24.921875 C 23.859375 -24.921875 23.765625 -24.96875 23.671875 -25.0625 C 23.515625 -25.0625 23.363281 -24.875 23.21875 -24.5 C 23.070312 -24.132812 22.898438 -23.742188 22.703125 -23.328125 C 22.503906 -22.910156 22.28125 -22.628906 22.03125 -22.484375 C 22.03125 -22.484375 22.03125 -22.503906 22.03125 -22.546875 C 22.03125 -22.597656 22.03125 -22.625 22.03125 -22.625 L 22.109375 -22.5625 C 22.015625 -22.40625 21.914062 -22.238281 21.8125 -22.0625 C 21.71875 -21.894531 21.597656 -21.765625 21.453125 -21.671875 C 20.660156 -21.472656 20.03125 -20.988281 19.5625 -20.21875 C 19.09375 -19.457031 18.535156 -18.976562 17.890625 -18.78125 C 17.347656 -18.582031 16.96875 -18.25 16.75 -17.78125 C 16.53125 -17.3125 16.25 -16.90625 15.90625 -16.5625 C 15.507812 -16.164062 15.160156 -15.859375 14.859375 -15.640625 C 14.566406 -15.421875 14.222656 -15.039062 13.828125 -14.5 C 13.734375 -14.101562 13.4375 -13.410156 12.9375 -12.421875 C 12.445312 -11.429688 11.816406 -10.503906 11.046875 -9.640625 C 10.285156 -8.785156 9.488281 -8.257812 8.65625 -8.0625 C 6.382812 -8.0625 4.617188 -8.6875 3.359375 -9.9375 C 2.109375 -11.195312 1.484375 -12.914062 1.484375 -15.09375 C 1.484375 -16.070312 1.617188 -16.832031 1.890625 -17.375 C 2.160156 -17.914062 2.367188 -18.484375 2.515625 -19.078125 C 2.660156 -19.765625 2.867188 -20.425781 3.140625 -21.0625 C 3.410156 -21.707031 3.671875 -22.351562 3.921875 -23 C 4.171875 -23.59375 4.585938 -24.0625 5.171875 -24.40625 C 5.765625 -24.75 6.160156 -25.265625 6.359375 -25.953125 C 6.609375 -26.691406 7.101562 -27.332031 7.84375 -27.875 C 8.582031 -28.414062 9.070312 -29.054688 9.3125 -29.796875 C 9.5625 -30.535156 10.21875 -31.398438 11.28125 -32.390625 C 12.34375 -33.378906 13.570312 -34.242188 14.96875 -34.984375 C 16.375 -35.722656 17.695312 -36.09375 18.9375 -36.09375 C 19.675781 -36.09375 20.375 -36.039062 21.03125 -35.9375 C 21.695312 -35.84375 22.378906 -35.722656 23.078125 -35.578125 C 23.910156 -35.378906 24.632812 -34.984375 25.25 -34.390625 C 25.863281 -33.796875 26.46875 -33.5 27.0625 -33.5 C 27.40625 -33.5 27.726562 -33.722656 28.03125 -34.171875 C 28.71875 -34.859375 29.085938 -35.347656 29.140625 -35.640625 C 29.191406 -35.941406 29.488281 -36.09375 30.03125 -36.09375 C 30.769531 -36.09375 31.644531 -35.96875 32.65625 -35.71875 C 33.664062 -35.46875 34.5625 -35.035156 35.34375 -34.421875 C 36.132812 -33.804688 36.53125 -32.90625 36.53125 -31.71875 C 36.53125 -30.738281 36.296875 -29.566406 35.828125 -28.203125 C 35.359375 -26.847656 34.890625 -25.429688 34.421875 -23.953125 C 33.953125 -22.484375 33.71875 -21.03125 33.71875 -19.59375 C 33.71875 -19.101562 33.546875 -18.632812 33.203125 -18.1875 C 32.859375 -17.75 32.6875 -17.28125 32.6875 -16.78125 C 32.6875 -16.289062 32.757812 -15.992188 32.90625 -15.890625 C 33.050781 -15.796875 33.273438 -15.75 33.578125 -15.75 C 34.066406 -15.75 34.484375 -15.921875 34.828125 -16.265625 C 34.972656 -16.410156 35.40625 -16.65625 36.125 -17 C 36.84375 -17.351562 37.644531 -17.6875 38.53125 -18 C 39.414062 -18.320312 40.15625 -18.484375 40.75 -18.484375 C 41 -18.484375 41.394531 -18.394531 41.9375 -18.21875 C 42.476562 -18.050781 42.96875 -17.78125 43.40625 -17.40625 C 43.851562 -17.039062 44.078125 -16.585938 44.078125 -16.046875 C 44.078125 -15.554688 43.890625 -15.25 43.515625 -15.125 C 43.148438 -15 42.769531 -14.9375 42.375 -14.9375 C 41.976562 -14.9375 41.679688 -14.835938 41.484375 -14.640625 C 41.046875 -14.148438 40.53125 -13.878906 39.9375 -13.828125 C 39.34375 -13.773438 38.773438 -13.601562 38.234375 -13.3125 C 37.097656 -12.664062 36.359375 -12.109375 36.015625 -11.640625 C 35.671875 -11.171875 35.15625 -10.742188 34.46875 -10.359375 C 34.113281 -10.003906 33.847656 -9.835938 33.671875 -9.859375 C 33.503906 -9.890625 33.234375 -9.769531 32.859375 -9.5 C 32.492188 -9.226562 31.820312 -8.453125 30.84375 -7.171875 C 30.644531 -6.921875 30.519531 -6.597656 30.46875 -6.203125 C 30.414062 -5.816406 30.269531 -5.472656 30.03125 -5.171875 C 29.976562 -5.128906 29.835938 -4.894531 29.609375 -4.46875 C 29.390625 -4.050781 29.28125 -3.796875 29.28125 -3.703125 C 29.28125 -3.703125 29.28125 -3.722656 29.28125 -3.765625 Z M 21 24.921875 C 20.800781 24.273438 20.703125 23.78125 20.703125 23.4375 C 20.703125 23.09375 20.847656 22.722656 21.140625 22.328125 C 21.441406 21.941406 21.59375 21.550781 21.59375 21.15625 C 21.59375 19.71875 21.863281 18.285156 22.40625 16.859375 C 22.945312 15.429688 23.21875 13.925781 23.21875 12.34375 C 23.21875 11.65625 23.363281 11.113281 23.65625 10.71875 C 23.957031 10.320312 24.109375 9.929688 24.109375 9.546875 C 24.109375 9.347656 23.992188 9.160156 23.765625 8.984375 C 23.546875 8.804688 23.4375 8.671875 23.4375 8.578125 C 23.4375 8.484375 23.515625 8.335938 23.671875 8.140625 C 23.765625 7.941406 23.921875 7.410156 24.140625 6.546875 C 24.367188 5.679688 24.566406 4.679688 24.734375 3.546875 C 24.910156 2.410156 25 1.425781 25 0.59375 C 25 0.445312 24.875 0.285156 24.625 0.109375 C 24.375 -0.0546875 24.203125 -0.140625 24.109375 -0.140625 C 23.960938 -0.140625 23.601562 0.113281 23.03125 0.625 C 22.46875 1.144531 22.085938 1.601562 21.890625 2 C 20.210938 4.90625 18.472656 7.773438 16.671875 10.609375 C 14.878906 13.441406 13.363281 16.410156 12.125 19.515625 C 10.894531 22.628906 10.28125 26.035156 10.28125 29.734375 C 10.28125 30.816406 10.453125 31.960938 10.796875 33.171875 C 11.140625 34.378906 11.851562 35.203125 12.9375 35.640625 C 13.4375 35.546875 13.921875 35.421875 14.390625 35.265625 C 14.859375 35.117188 15.3125 35 15.75 34.90625 C 16.050781 34.507812 16.320312 34.140625 16.5625 33.796875 C 16.8125 33.453125 17.082031 33.128906 17.375 32.828125 C 17.71875 32.535156 17.878906 32.179688 17.859375 31.765625 C 17.835938 31.347656 17.945312 30.960938 18.1875 30.609375 C 18.632812 30.066406 18.929688 29.460938 19.078125 28.796875 C 19.222656 28.140625 19.40625 27.460938 19.625 26.765625 C 19.851562 26.078125 20.3125 25.460938 21 24.921875 Z M 25.21875 -30.765625 C 25.019531 -30.960938 24.859375 -31.160156 24.734375 -31.359375 C 24.609375 -31.554688 24.375 -31.65625 24.03125 -31.65625 C 23.6875 -31.65625 22.992188 -31.332031 21.953125 -30.6875 C 20.921875 -30.050781 19.789062 -29.300781 18.5625 -28.4375 C 17.332031 -27.570312 16.269531 -26.78125 15.375 -26.0625 C 14.488281 -25.351562 14.046875 -24.925781 14.046875 -24.78125 C 14.046875 -24.425781 13.800781 -23.878906 13.3125 -23.140625 C 12.820312 -22.398438 12.304688 -21.6875 11.765625 -21 C 11.566406 -20.757812 11.242188 -20.328125 10.796875 -19.703125 C 10.347656 -19.085938 9.9375 -18.507812 9.5625 -17.96875 C 9.195312 -17.425781 9.015625 -17.054688 9.015625 -16.859375 C 9.117188 -16.660156 9.171875 -16.5 9.171875 -16.375 C 9.171875 -16.257812 9.269531 -16.203125 9.46875 -16.203125 C 9.519531 -16.203125 9.554688 -16.210938 9.578125 -16.234375 C 9.597656 -16.253906 9.609375 -16.265625 9.609375 -16.265625 C 11.140625 -17.203125 12.492188 -18.375 13.671875 -19.78125 C 14.859375 -21.1875 16.117188 -22.207031 17.453125 -22.84375 C 17.847656 -23.039062 18.351562 -23.570312 18.96875 -24.4375 C 19.582031 -25.300781 20.1875 -25.976562 20.78125 -26.46875 C 21.175781 -26.820312 21.570312 -27.144531 21.96875 -27.4375 C 22.363281 -27.726562 22.679688 -28.125 22.921875 -28.625 C 23.117188 -28.96875 23.390625 -29.160156 23.734375 -29.203125 C 24.078125 -29.253906 24.394531 -29.363281 24.6875 -29.53125 C 24.988281 -29.707031 25.164062 -30.117188 25.21875 -30.765625 Z M 26.921875 4.65625 C 26.722656 4.65625 26.625 4.726562 26.625 4.875 C 26.625 4.925781 26.660156 4.976562 26.734375 5.03125 C 26.804688 5.082031 26.84375 5.109375 26.84375 5.109375 C 26.945312 5.109375 27 5.007812 27 4.8125 C 27 4.757812 26.972656 4.707031 26.921875 4.65625 Z M 19.15625 -23.078125 C 19.101562 -23.117188 19.078125 -23.148438 19.078125 -23.171875 C 19.078125 -23.203125 19.050781 -23.242188 19 -23.296875 C 19 -23.296875 18.953125 -23.242188 18.859375 -23.140625 C 18.859375 -22.941406 18.90625 -22.84375 19 -22.84375 C 19.101562 -22.84375 19.15625 -22.921875 19.15625 -23.078125 Z M 22.109375 -22.5625 C 22.109375 -22.5625 22.09375 -22.546875 22.0625 -22.515625 C 22.039062 -22.492188 22.03125 -22.484375 22.03125 -22.484375 C 22.03125 -22.484375 22.03125 -22.503906 22.03125 -22.546875 C 22.03125 -22.597656 22.03125 -22.625 22.03125 -22.625 Z M 22.109375 -22.5625 "/></g></g></g><g fill="#427a01" fill-opacity="1"><g transform="translate(213.219812, 94.499996)"><g><path d="M 3.625 -16.421875 L 3.03125 -16.859375 C 3.320312 -16.910156 3.578125 -17.179688 3.796875 -17.671875 C 4.023438 -18.171875 4.222656 -18.675781 4.390625 -19.1875 C 4.566406 -19.707031 4.753906 -20.066406 4.953125 -20.265625 C 4.898438 -20.460938 4.875 -20.632812 4.875 -20.78125 C 4.875 -20.925781 4.875 -21.097656 4.875 -21.296875 C 4.875 -21.941406 5.007812 -22.582031 5.28125 -23.21875 C 5.550781 -23.863281 5.6875 -24.382812 5.6875 -24.78125 C 5.789062 -26.15625 6.210938 -27.546875 6.953125 -28.953125 C 7.691406 -30.359375 8.359375 -31.703125 8.953125 -32.984375 C 9.097656 -33.273438 9.351562 -33.789062 9.71875 -34.53125 C 10.09375 -35.269531 10.488281 -35.957031 10.90625 -36.59375 C 11.320312 -37.238281 11.628906 -37.5625 11.828125 -37.5625 C 11.929688 -37.5625 12.03125 -37.550781 12.125 -37.53125 C 12.226562 -37.507812 12.300781 -37.5 12.34375 -37.5 C 12.738281 -37.5 13.132812 -37.546875 13.53125 -37.640625 C 13.925781 -37.742188 14.320312 -37.796875 14.71875 -37.796875 C 15.507812 -37.796875 16.078125 -37.546875 16.421875 -37.046875 C 16.765625 -36.554688 17.019531 -35.976562 17.1875 -35.3125 C 17.363281 -34.644531 17.523438 -34.039062 17.671875 -33.5 C 17.671875 -33.300781 17.644531 -33.09375 17.59375 -32.875 C 17.550781 -32.65625 17.503906 -32.367188 17.453125 -32.015625 C 18.097656 -32.859375 18.828125 -33.695312 19.640625 -34.53125 C 20.453125 -35.375 20.90625 -36.039062 21 -36.53125 C 21.101562 -36.925781 21.484375 -37.457031 22.140625 -38.125 C 22.804688 -38.789062 23.582031 -39.394531 24.46875 -39.9375 C 25.363281 -40.476562 26.226562 -40.75 27.0625 -40.75 C 28.394531 -40.75 29.429688 -40.378906 30.171875 -39.640625 C 30.910156 -38.898438 31.425781 -38.007812 31.71875 -36.96875 C 32.019531 -35.9375 32.171875 -34.976562 32.171875 -34.09375 C 32.171875 -32.707031 31.984375 -31.644531 31.609375 -30.90625 C 31.242188 -30.164062 30.519531 -29.40625 29.4375 -28.625 C 28.988281 -28.320312 28.691406 -27.910156 28.546875 -27.390625 C 28.398438 -26.878906 28.265625 -26.425781 28.140625 -26.03125 C 28.015625 -25.632812 27.753906 -25.4375 27.359375 -25.4375 C 26.566406 -25.4375 26 -25.890625 25.65625 -26.796875 C 25.3125 -27.710938 25.078125 -28.75 24.953125 -29.90625 C 24.835938 -31.070312 24.726562 -32.109375 24.625 -33.015625 C 24.53125 -33.929688 24.332031 -34.390625 24.03125 -34.390625 C 23.976562 -34.390625 23.953125 -34.375 23.953125 -34.34375 C 23.953125 -34.320312 23.929688 -34.3125 23.890625 -34.3125 C 22.898438 -33.71875 21.863281 -32.765625 20.78125 -31.453125 C 19.695312 -30.148438 18.707031 -28.757812 17.8125 -27.28125 C 16.925781 -25.800781 16.238281 -24.472656 15.75 -23.296875 C 15.5 -22.703125 15.265625 -22.097656 15.046875 -21.484375 C 14.828125 -20.867188 14.519531 -20.289062 14.125 -19.75 C 13.726562 -19.15625 13.457031 -18.507812 13.3125 -17.8125 C 13.164062 -17.125 12.96875 -16.273438 12.71875 -15.265625 C 12.46875 -14.253906 11.972656 -12.890625 11.234375 -11.171875 C 10.742188 -9.929688 10.410156 -8.644531 10.234375 -7.3125 C 10.066406 -5.988281 9.640625 -4.734375 8.953125 -3.546875 C 8.953125 -3.597656 8.875 -3.300781 8.71875 -2.65625 C 8.570312 -2.019531 8.328125 -1.28125 7.984375 -0.4375 C 7.640625 0.394531 7.207031 1.128906 6.6875 1.765625 C 6.175781 2.410156 5.570312 2.734375 4.875 2.734375 C 3.9375 2.734375 3.28125 2.210938 2.90625 1.171875 C 2.539062 0.140625 2.359375 -0.988281 2.359375 -2.21875 C 2.359375 -2.5625 2.382812 -2.894531 2.4375 -3.21875 C 2.488281 -3.539062 2.515625 -3.875 2.515625 -4.21875 C 2.515625 -4.757812 2.460938 -5.285156 2.359375 -5.796875 C 2.265625 -6.316406 2.21875 -6.898438 2.21875 -7.546875 C 2.21875 -8.234375 2.300781 -9.109375 2.46875 -10.171875 C 2.644531 -11.234375 2.976562 -12.054688 3.46875 -12.640625 C 3.46875 -12.691406 3.476562 -12.742188 3.5 -12.796875 C 3.53125 -12.847656 3.546875 -12.894531 3.546875 -12.9375 C 3.546875 -13.1875 3.484375 -13.410156 3.359375 -13.609375 C 3.242188 -13.804688 3.1875 -14.003906 3.1875 -14.203125 C 3.1875 -14.546875 3.242188 -14.925781 3.359375 -15.34375 C 3.484375 -15.757812 3.570312 -16.117188 3.625 -16.421875 Z M 13.09375 -22.625 L 13.015625 -22.84375 L 12.875 -22.625 Z M 13.09375 -22.625 "/></g></g></g><g fill="#427a01" fill-opacity="1"><g transform="translate(249.680904, 94.499996)"><g><path d="M 39.78125 -29.140625 C 39.78125 -29.234375 39.832031 -29.28125 39.9375 -29.28125 C 40.132812 -29.28125 40.40625 -29.144531 40.75 -28.875 C 41.09375 -28.601562 41.265625 -28.296875 41.265625 -27.953125 C 41.265625 -27.660156 41.039062 -27.363281 40.59375 -27.0625 C 40.15625 -26.769531 39.34375 -26.570312 38.15625 -26.46875 C 36.925781 -26.375 35.71875 -26.078125 34.53125 -25.578125 C 33.351562 -25.085938 32.222656 -24.570312 31.140625 -24.03125 C 29.753906 -23.34375 28.835938 -22.773438 28.390625 -22.328125 C 27.953125 -21.890625 27.660156 -21.128906 27.515625 -20.046875 C 27.515625 -19.941406 27.453125 -19.554688 27.328125 -18.890625 C 27.203125 -18.222656 27.050781 -17.484375 26.875 -16.671875 C 26.707031 -15.859375 26.546875 -15.128906 26.390625 -14.484375 C 26.242188 -13.847656 26.125 -13.484375 26.03125 -13.390625 C 25.488281 -13.085938 25.191406 -12.664062 25.140625 -12.125 C 25.085938 -11.582031 25.070312 -11.015625 25.09375 -10.421875 C 25.125 -9.835938 24.941406 -9.296875 24.546875 -8.796875 C 24.203125 -8.359375 23.859375 -7.828125 23.515625 -7.203125 C 23.171875 -6.585938 22.601562 -5.75 21.8125 -4.6875 C 21.03125 -3.632812 19.75 -2.21875 17.96875 -0.4375 C 17.96875 -0.4375 17.96875 -0.445312 17.96875 -0.46875 C 17.96875 -0.5 17.941406 -0.515625 17.890625 -0.515625 C 17.742188 -0.515625 17.382812 -0.378906 16.8125 -0.109375 C 16.25 0.160156 15.679688 0.46875 15.109375 0.8125 C 14.546875 1.15625 14.09375 1.425781 13.75 1.625 C 12.96875 1.375 12.15625 1.140625 11.3125 0.921875 C 10.476562 0.703125 9.691406 0.347656 8.953125 -0.140625 C 8.953125 -0.140625 8.691406 -0.382812 8.171875 -0.875 C 7.648438 -1.375 7.03125 -2.101562 6.3125 -3.0625 C 5.601562 -4.03125 4.988281 -5.226562 4.46875 -6.65625 C 3.957031 -8.082031 3.703125 -9.757812 3.703125 -11.6875 C 3.703125 -12.425781 3.800781 -13.140625 4 -13.828125 C 4.195312 -14.515625 4.296875 -15.207031 4.296875 -15.90625 C 4.296875 -16.25 4.429688 -16.8125 4.703125 -17.59375 C 4.972656 -18.382812 5.226562 -19.222656 5.46875 -20.109375 C 5.71875 -21.003906 5.84375 -21.722656 5.84375 -22.265625 C 5.84375 -22.804688 5.671875 -23.457031 5.328125 -24.21875 C 4.984375 -24.976562 4.632812 -25.789062 4.28125 -26.65625 C 3.9375 -27.519531 3.765625 -28.296875 3.765625 -28.984375 C 3.765625 -31.546875 4.070312 -33.421875 4.6875 -34.609375 C 5.3125 -35.796875 6.210938 -36.546875 7.390625 -36.859375 C 8.578125 -37.179688 9.984375 -37.34375 11.609375 -37.34375 C 12.148438 -37.34375 12.71875 -37.34375 13.3125 -37.34375 C 13.90625 -37.34375 14.519531 -37.34375 15.15625 -37.34375 C 16.144531 -37.34375 17.070312 -37.054688 17.9375 -36.484375 C 18.800781 -35.921875 19.675781 -35.492188 20.5625 -35.203125 C 21.59375 -34.859375 22.6875 -34.03125 23.84375 -32.71875 C 25.007812 -31.414062 25.785156 -30.070312 26.171875 -28.6875 C 26.328125 -28.101562 26.503906 -27.5 26.703125 -26.875 C 26.898438 -26.257812 27.316406 -25.953125 27.953125 -25.953125 C 28.097656 -25.953125 28.320312 -26.003906 28.625 -26.109375 C 30.5 -26.742188 32.332031 -27.378906 34.125 -28.015625 C 35.925781 -28.660156 37.8125 -29.035156 39.78125 -29.140625 Z M 23.4375 -18.1875 C 23.394531 -18.6875 23.359375 -19.128906 23.328125 -19.515625 C 23.304688 -19.910156 23.023438 -20.109375 22.484375 -20.109375 C 21.148438 -19.617188 19.804688 -19.148438 18.453125 -18.703125 C 17.097656 -18.265625 15.703125 -18.046875 14.265625 -18.046875 C 13.523438 -17.847656 13.007812 -17.265625 12.71875 -16.296875 C 12.425781 -15.335938 12.28125 -14.289062 12.28125 -13.15625 C 12.28125 -12.96875 12.289062 -12.785156 12.3125 -12.609375 C 12.332031 -12.429688 12.34375 -12.242188 12.34375 -12.046875 C 12.34375 -11.554688 12.253906 -11.039062 12.078125 -10.5 C 11.910156 -9.957031 11.828125 -9.460938 11.828125 -9.015625 C 11.828125 -8.523438 11.9375 -7.921875 12.15625 -7.203125 C 12.382812 -6.492188 12.707031 -5.867188 13.125 -5.328125 C 13.539062 -4.785156 14.070312 -4.515625 14.71875 -4.515625 C 15.601562 -4.515625 16.453125 -4.96875 17.265625 -5.875 C 18.078125 -6.789062 18.816406 -7.851562 19.484375 -9.0625 C 20.148438 -10.269531 20.738281 -11.390625 21.25 -12.421875 C 21.769531 -13.460938 22.207031 -14.078125 22.5625 -14.265625 C 22.945312 -14.515625 23.164062 -15.070312 23.21875 -15.9375 C 23.269531 -16.800781 23.34375 -17.550781 23.4375 -18.1875 Z M 12.71875 -34.828125 C 12.570312 -34.785156 12.398438 -34.75 12.203125 -34.71875 C 12.003906 -34.695312 11.78125 -34.660156 11.53125 -34.609375 C 10.394531 -34.460938 9.503906 -33.785156 8.859375 -32.578125 C 8.222656 -31.367188 7.90625 -30.222656 7.90625 -29.140625 C 7.90625 -28.796875 7.941406 -28.335938 8.015625 -27.765625 C 8.097656 -27.203125 8.382812 -26.921875 8.875 -26.921875 C 8.96875 -26.921875 9.015625 -26.945312 9.015625 -27 C 9.554688 -27.539062 9.925781 -27.921875 10.125 -28.140625 C 10.320312 -28.359375 10.546875 -28.46875 10.796875 -28.46875 C 11.085938 -28.46875 11.457031 -28.367188 11.90625 -28.171875 C 12.050781 -28.128906 12.53125 -27.984375 13.34375 -27.734375 C 14.15625 -27.484375 14.941406 -27.148438 15.703125 -26.734375 C 16.472656 -26.316406 16.859375 -25.8125 16.859375 -25.21875 C 16.859375 -24.875 16.6875 -24.429688 16.34375 -23.890625 C 16 -23.347656 15.828125 -22.90625 15.828125 -22.5625 C 15.828125 -22.257812 15.9375 -22.070312 16.15625 -22 C 16.375 -21.925781 16.582031 -21.890625 16.78125 -21.890625 C 17.425781 -21.984375 18.238281 -22.128906 19.21875 -22.328125 C 20.207031 -22.523438 21.082031 -22.820312 21.84375 -23.21875 C 22.613281 -23.613281 23 -24.082031 23 -24.625 C 23 -24.875 22.984375 -25.109375 22.953125 -25.328125 C 22.929688 -25.546875 22.875 -25.753906 22.78125 -25.953125 C 22.1875 -27.285156 21.421875 -28.628906 20.484375 -29.984375 C 19.546875 -31.335938 18.445312 -32.484375 17.1875 -33.421875 C 15.9375 -34.359375 14.445312 -34.828125 12.71875 -34.828125 Z M 12.71875 -34.828125 "/></g></g></g><g fill="#8cd024" fill-opacity="1"><g transform="translate(287.107206, 94.499996)"><g><path d="M 36.09375 -9.984375 C 36.289062 -9.535156 36.390625 -9.066406 36.390625 -8.578125 C 36.390625 -7.390625 35.929688 -6.570312 35.015625 -6.125 C 34.109375 -5.6875 33.023438 -5.414062 31.765625 -5.3125 C 30.503906 -5.21875 29.359375 -5.125 28.328125 -5.03125 C 28.179688 -4.976562 28.03125 -4.890625 27.875 -4.765625 C 27.726562 -4.640625 27.554688 -4.578125 27.359375 -4.578125 C 27.210938 -4.578125 27.050781 -4.613281 26.875 -4.6875 C 26.707031 -4.769531 26.523438 -4.8125 26.328125 -4.8125 C 25.878906 -4.8125 25.1875 -4.550781 24.25 -4.03125 C 23.3125 -3.507812 22.378906 -3.25 21.453125 -3.25 C 20.316406 -3.25 19.15625 -3.039062 17.96875 -2.625 C 16.789062 -2.207031 15.597656 -1.773438 14.390625 -1.328125 C 13.179688 -0.890625 11.984375 -0.617188 10.796875 -0.515625 C 10.203125 -0.515625 9.460938 -0.660156 8.578125 -0.953125 C 7.691406 -1.253906 6.898438 -1.640625 6.203125 -2.109375 C 5.515625 -2.578125 5.171875 -3.054688 5.171875 -3.546875 C 5.171875 -3.941406 5.351562 -4.238281 5.71875 -4.4375 C 6.09375 -4.632812 6.28125 -4.957031 6.28125 -5.40625 C 6.28125 -6.289062 6.191406 -7.210938 6.015625 -8.171875 C 5.847656 -9.128906 5.765625 -10.078125 5.765625 -11.015625 C 5.765625 -11.410156 5.800781 -11.789062 5.875 -12.15625 C 5.945312 -12.53125 5.984375 -12.890625 5.984375 -13.234375 C 5.984375 -14.078125 5.945312 -14.90625 5.875 -15.71875 C 5.800781 -16.53125 5.765625 -17.351562 5.765625 -18.1875 C 5.765625 -18.6875 5.773438 -19.179688 5.796875 -19.671875 C 5.828125 -20.160156 5.84375 -20.65625 5.84375 -21.15625 C 5.84375 -21.84375 5.726562 -22.53125 5.5 -23.21875 C 5.28125 -23.90625 5.171875 -24.546875 5.171875 -25.140625 C 5.171875 -26.128906 5.234375 -27.128906 5.359375 -28.140625 C 5.484375 -29.148438 5.546875 -30.148438 5.546875 -31.140625 C 5.546875 -31.972656 5.484375 -32.820312 5.359375 -33.6875 C 5.234375 -34.550781 5.171875 -35.398438 5.171875 -36.234375 C 5.171875 -36.828125 5.207031 -37.675781 5.28125 -38.78125 C 5.363281 -39.894531 5.476562 -41.066406 5.625 -42.296875 C 5.769531 -43.535156 5.890625 -44.625 5.984375 -45.5625 C 5.984375 -45.90625 5.929688 -46.222656 5.828125 -46.515625 C 5.734375 -46.804688 5.6875 -47.128906 5.6875 -47.484375 C 5.6875 -48.265625 5.75 -49.035156 5.875 -49.796875 C 6 -50.566406 6.0625 -51.347656 6.0625 -52.140625 C 6.0625 -52.679688 6.40625 -53.148438 7.09375 -53.546875 C 7.789062 -53.941406 8.59375 -54.25 9.5 -54.46875 C 10.414062 -54.6875 11.21875 -54.796875 11.90625 -54.796875 C 12.445312 -54.796875 12.9375 -54.585938 13.375 -54.171875 C 13.820312 -53.753906 14.046875 -53.148438 14.046875 -52.359375 C 14.003906 -52.160156 13.984375 -51.960938 13.984375 -51.765625 C 13.984375 -51.566406 13.984375 -51.367188 13.984375 -51.171875 C 13.984375 -49.992188 14.078125 -48.835938 14.265625 -47.703125 C 14.460938 -46.566406 14.5625 -45.457031 14.5625 -44.375 C 14.5625 -42.394531 14.472656 -40.359375 14.296875 -38.265625 C 14.128906 -36.171875 14.046875 -34.164062 14.046875 -32.25 C 14.046875 -31.894531 14.070312 -31.59375 14.125 -31.34375 C 14.175781 -31.101562 14.203125 -30.835938 14.203125 -30.546875 C 14.203125 -30.148438 14.140625 -29.738281 14.015625 -29.3125 C 13.890625 -28.894531 13.828125 -28.492188 13.828125 -28.109375 C 13.828125 -27.804688 13.875 -27.519531 13.96875 -27.25 C 14.070312 -26.976562 14.125 -26.671875 14.125 -26.328125 C 14.125 -25.984375 14.085938 -25.597656 14.015625 -25.171875 C 13.941406 -24.753906 13.90625 -24.347656 13.90625 -23.953125 C 13.90625 -23.566406 13.742188 -23.195312 13.421875 -22.84375 C 13.097656 -22.5 12.9375 -22.109375 12.9375 -21.671875 C 12.9375 -21.367188 13.132812 -20.882812 13.53125 -20.21875 C 13.925781 -19.5625 14.125 -18.492188 14.125 -17.015625 C 14.125 -16.273438 14.109375 -15.617188 14.078125 -15.046875 C 14.054688 -14.484375 14.046875 -13.878906 14.046875 -13.234375 C 14.046875 -12.890625 14.054688 -12.296875 14.078125 -11.453125 C 14.109375 -10.617188 14.207031 -9.84375 14.375 -9.125 C 14.550781 -8.414062 14.835938 -8.0625 15.234375 -8.0625 C 17.160156 -8.40625 19.082031 -8.820312 21 -9.3125 C 22.925781 -9.8125 24.875 -10.28125 26.84375 -10.71875 C 27.726562 -10.914062 28.613281 -11.140625 29.5 -11.390625 C 30.394531 -11.640625 31.3125 -11.765625 32.25 -11.765625 C 33.1875 -11.765625 33.828125 -11.585938 34.171875 -11.234375 C 34.515625 -10.890625 35.15625 -10.472656 36.09375 -9.984375 Z M 11.984375 -18.046875 C 12.128906 -18.296875 12.203125 -18.515625 12.203125 -18.703125 C 12.097656 -19.097656 12.023438 -19.296875 11.984375 -19.296875 C 11.734375 -19.296875 11.5625 -19.148438 11.46875 -18.859375 C 11.46875 -18.316406 11.640625 -18.046875 11.984375 -18.046875 Z M 12.28125 -25 C 12.320312 -25.195312 12.351562 -25.378906 12.375 -25.546875 C 12.40625 -25.722656 12.445312 -25.859375 12.5 -25.953125 C 12.445312 -26.148438 12.40625 -26.347656 12.375 -26.546875 C 12.351562 -26.742188 12.269531 -26.84375 12.125 -26.84375 C 11.832031 -26.84375 11.648438 -26.726562 11.578125 -26.5 C 11.503906 -26.28125 11.46875 -26.078125 11.46875 -25.890625 C 11.46875 -25.691406 11.515625 -25.457031 11.609375 -25.1875 C 11.710938 -24.914062 11.882812 -24.78125 12.125 -24.78125 C 12.226562 -24.78125 12.28125 -24.851562 12.28125 -25 Z M 12.28125 -25 "/></g></g></g><g fill="#8cd024" fill-opacity="1"><g transform="translate(327.783854, 94.499996)"><g><path d="M 2.953125 -17.234375 C 2.953125 -17.578125 3.023438 -18.414062 3.171875 -19.75 C 3.328125 -21.082031 3.550781 -22.609375 3.84375 -24.328125 C 4.144531 -26.054688 4.476562 -27.742188 4.84375 -29.390625 C 5.21875 -31.046875 5.625 -32.425781 6.0625 -33.53125 C 6.507812 -34.644531 6.953125 -35.203125 7.390625 -35.203125 C 7.929688 -35.203125 8.519531 -35.101562 9.15625 -34.90625 C 9.800781 -34.707031 10.394531 -34.535156 10.9375 -34.390625 C 11.632812 -34.191406 12.226562 -33.5625 12.71875 -32.5 C 13.207031 -31.4375 13.585938 -30.253906 13.859375 -28.953125 C 14.128906 -27.648438 14.265625 -26.550781 14.265625 -25.65625 C 14.265625 -24.71875 14.226562 -23.804688 14.15625 -22.921875 C 14.082031 -22.035156 14 -21.148438 13.90625 -20.265625 C 13.65625 -19.617188 13.554688 -18.953125 13.609375 -18.265625 C 13.660156 -17.578125 13.5625 -16.890625 13.3125 -16.203125 C 13.257812 -16.148438 13.234375 -16.023438 13.234375 -15.828125 C 13.234375 -15.484375 13.242188 -14.804688 13.265625 -13.796875 C 13.296875 -12.785156 13.375 -11.695312 13.5 -10.53125 C 13.625 -9.375 13.820312 -8.375 14.09375 -7.53125 C 14.363281 -6.695312 14.742188 -6.28125 15.234375 -6.28125 C 15.429688 -6.28125 15.578125 -6.332031 15.671875 -6.4375 C 17.253906 -8.3125 18.6875 -10.144531 19.96875 -11.9375 C 21.25 -13.738281 22.132812 -15.847656 22.625 -18.265625 C 22.769531 -19.003906 23.078125 -19.582031 23.546875 -20 C 24.015625 -20.425781 24.546875 -20.640625 25.140625 -20.640625 C 25.640625 -20.640625 26.0625 -20.523438 26.40625 -20.296875 C 26.75 -20.078125 26.921875 -19.742188 26.921875 -19.296875 C 26.921875 -18.953125 26.734375 -18.535156 26.359375 -18.046875 C 25.992188 -17.554688 25.613281 -17.035156 25.21875 -16.484375 C 24.820312 -15.941406 24.550781 -15.398438 24.40625 -14.859375 C 24.300781 -14.617188 24.078125 -14.078125 23.734375 -13.234375 C 23.390625 -12.398438 23.019531 -11.8125 22.625 -11.46875 C 22.28125 -11.269531 22.109375 -10.972656 22.109375 -10.578125 C 22.109375 -10.179688 22.007812 -9.8125 21.8125 -9.46875 C 21.519531 -8.820312 21.140625 -8.238281 20.671875 -7.71875 C 20.203125 -7.207031 19.914062 -6.707031 19.8125 -6.21875 C 19.8125 -5.820312 19.550781 -5.363281 19.03125 -4.84375 C 18.519531 -4.320312 18.164062 -3.789062 17.96875 -3.25 C 17.570312 -2.507812 16.78125 -1.90625 15.59375 -1.4375 C 14.414062 -0.96875 13.410156 -0.734375 12.578125 -0.734375 C 11.785156 -0.734375 10.929688 -0.992188 10.015625 -1.515625 C 9.109375 -2.035156 8.285156 -2.703125 7.546875 -3.515625 C 6.804688 -4.328125 6.238281 -5.148438 5.84375 -5.984375 C 5.5 -6.722656 4.976562 -7.6875 4.28125 -8.875 C 3.59375 -10.0625 3.25 -11.195312 3.25 -12.28125 C 3.25 -13.113281 3.195312 -13.945312 3.09375 -14.78125 C 3 -15.625 2.953125 -16.441406 2.953125 -17.234375 Z M 8.5 -45.78125 C 8.5 -46.175781 8.570312 -46.644531 8.71875 -47.1875 C 8.875 -47.726562 9.269531 -48 9.90625 -48 C 10.75 -47.800781 11.578125 -47.625 12.390625 -47.46875 C 13.203125 -47.320312 13.609375 -46.78125 13.609375 -45.84375 C 13.609375 -45.007812 13.382812 -44.1875 12.9375 -43.375 C 12.5 -42.5625 11.785156 -42.15625 10.796875 -42.15625 C 9.910156 -42.15625 9.304688 -42.597656 8.984375 -43.484375 C 8.660156 -44.367188 8.5 -45.132812 8.5 -45.78125 Z M 8.5 -45.78125 "/></g></g></g><g fill="#8cd024" fill-opacity="1"><g transform="translate(351.598287, 94.499996)"><g><path d="M 29.28125 6.875 C 29.039062 6.820312 28.820312 6.785156 28.625 6.765625 C 28.425781 6.742188 28.273438 6.734375 28.171875 6.734375 C 27.878906 6.734375 27.460938 6.90625 26.921875 7.25 C 25.640625 7.25 24.601562 6.742188 23.8125 5.734375 C 23.019531 4.722656 22.453125 3.476562 22.109375 2 C 21.765625 0.519531 21.566406 -0.859375 21.515625 -2.140625 C 21.515625 -2.535156 21.523438 -2.90625 21.546875 -3.25 C 21.578125 -3.59375 21.59375 -3.941406 21.59375 -4.296875 C 21.59375 -4.835938 21.539062 -5.328125 21.4375 -5.765625 C 21.34375 -6.210938 21.296875 -6.679688 21.296875 -7.171875 C 21.296875 -7.765625 21.515625 -8.46875 21.953125 -9.28125 C 22.398438 -10.09375 22.625 -10.570312 22.625 -10.71875 C 22.625 -10.863281 22.613281 -11 22.59375 -11.125 C 22.570312 -11.25 22.5625 -11.382812 22.5625 -11.53125 C 22.5625 -11.632812 22.582031 -11.757812 22.625 -11.90625 C 22.675781 -12.050781 22.703125 -12.175781 22.703125 -12.28125 C 22.703125 -12.519531 22.578125 -12.722656 22.328125 -12.890625 C 22.085938 -13.066406 21.96875 -13.304688 21.96875 -13.609375 C 21.96875 -14.003906 22.050781 -14.4375 22.21875 -14.90625 C 22.394531 -15.375 22.507812 -15.828125 22.5625 -16.265625 C 22.5625 -16.515625 22.484375 -16.703125 22.328125 -16.828125 C 22.179688 -16.953125 22.109375 -17.113281 22.109375 -17.3125 C 22.109375 -17.40625 22.207031 -17.550781 22.40625 -17.75 C 22.851562 -18.039062 23.125 -18.53125 23.21875 -19.21875 C 23.320312 -19.914062 23.375 -20.410156 23.375 -20.703125 C 23.375 -21.296875 23.320312 -21.890625 23.21875 -22.484375 C 23.125 -23.078125 23.078125 -23.664062 23.078125 -24.25 C 23.078125 -24.601562 23.125 -24.960938 23.21875 -25.328125 C 23.320312 -25.703125 23.375 -26.0625 23.375 -26.40625 C 23.375 -26.5 23.359375 -26.617188 23.328125 -26.765625 C 23.304688 -26.921875 23.242188 -27 23.140625 -27 C 22.992188 -27 22.660156 -26.785156 22.140625 -26.359375 C 21.628906 -25.941406 21.066406 -25.410156 20.453125 -24.765625 C 19.835938 -24.128906 19.296875 -23.476562 18.828125 -22.8125 C 18.359375 -22.144531 18.097656 -21.59375 18.046875 -21.15625 C 17.992188 -20.757812 17.757812 -20.164062 17.34375 -19.375 C 16.925781 -18.582031 16.457031 -17.78125 15.9375 -16.96875 C 15.414062 -16.15625 14.984375 -15.476562 14.640625 -14.9375 C 13.898438 -13.800781 13.160156 -12.726562 12.421875 -11.71875 C 11.679688 -10.707031 10.832031 -9.878906 9.875 -9.234375 C 8.914062 -8.597656 7.71875 -8.28125 6.28125 -8.28125 C 5.34375 -8.28125 4.640625 -8.660156 4.171875 -9.421875 C 3.703125 -10.191406 3.40625 -11.144531 3.28125 -12.28125 C 3.164062 -13.414062 3.109375 -14.523438 3.109375 -15.609375 C 3.109375 -16.640625 3.128906 -17.550781 3.171875 -18.34375 C 3.222656 -19.132812 3.25 -19.972656 3.25 -20.859375 C 3.25 -21.148438 3.195312 -21.441406 3.09375 -21.734375 C 3 -22.035156 2.953125 -22.332031 2.953125 -22.625 C 2.953125 -22.875 3.015625 -23.097656 3.140625 -23.296875 C 3.265625 -23.492188 3.328125 -23.710938 3.328125 -23.953125 C 3.328125 -24.148438 3.3125 -24.347656 3.28125 -24.546875 C 3.257812 -24.742188 3.25 -24.941406 3.25 -25.140625 C 3.25 -26.421875 3.421875 -27.738281 3.765625 -29.09375 C 4.117188 -30.457031 4.296875 -31.78125 4.296875 -33.0625 C 4.296875 -33.601562 4.738281 -34.054688 5.625 -34.421875 C 6.507812 -34.796875 7.269531 -34.984375 7.90625 -34.984375 C 9.039062 -34.984375 9.707031 -34.597656 9.90625 -33.828125 C 10.101562 -33.066406 10.203125 -32.269531 10.203125 -31.4375 C 10.203125 -29.800781 10.175781 -28.171875 10.125 -26.546875 C 10.082031 -24.921875 10.007812 -23.296875 9.90625 -21.671875 C 9.8125 -20.984375 9.550781 -20.242188 9.125 -19.453125 C 8.707031 -18.660156 8.5 -17.894531 8.5 -17.15625 C 8.5 -17.0625 8.535156 -16.960938 8.609375 -16.859375 C 8.679688 -16.765625 8.742188 -16.664062 8.796875 -16.5625 C 9.441406 -16.5625 10.132812 -17.066406 10.875 -18.078125 C 11.613281 -19.085938 12.410156 -20.207031 13.265625 -21.4375 C 14.128906 -22.675781 15.054688 -23.640625 16.046875 -24.328125 C 16.441406 -24.773438 16.835938 -25.316406 17.234375 -25.953125 C 17.628906 -26.597656 18.046875 -27.164062 18.484375 -27.65625 C 18.878906 -28.144531 19.394531 -28.585938 20.03125 -28.984375 C 20.675781 -29.378906 21.28125 -29.738281 21.84375 -30.0625 C 22.414062 -30.382812 22.75 -30.644531 22.84375 -30.84375 C 23.238281 -31.425781 23.78125 -31.804688 24.46875 -31.984375 C 25.164062 -32.160156 25.832031 -32.25 26.46875 -32.25 C 27.601562 -32.25 28.378906 -31.925781 28.796875 -31.28125 C 29.222656 -30.644531 29.457031 -29.609375 29.5 -28.171875 C 29.550781 -26.742188 29.578125 -24.820312 29.578125 -22.40625 C 29.578125 -21.664062 29.316406 -21.097656 28.796875 -20.703125 C 28.285156 -20.304688 28.03125 -19.789062 28.03125 -19.15625 C 28.03125 -19.050781 28.050781 -18.925781 28.09375 -18.78125 C 28.144531 -18.632812 28.171875 -18.488281 28.171875 -18.34375 C 28.171875 -18.195312 28.132812 -18.023438 28.0625 -17.828125 C 27.988281 -17.628906 27.953125 -17.457031 27.953125 -17.3125 C 27.953125 -17.0625 28.085938 -16.800781 28.359375 -16.53125 C 28.628906 -16.257812 28.765625 -16.023438 28.765625 -15.828125 C 28.765625 -15.628906 28.613281 -15.457031 28.3125 -15.3125 C 28.019531 -15.164062 27.773438 -15.015625 27.578125 -14.859375 C 27.578125 -14.660156 27.625 -14.4375 27.71875 -14.1875 C 27.820312 -13.945312 27.875 -13.78125 27.875 -13.6875 C 27.875 -13.632812 27.875 -13.609375 27.875 -13.609375 C 27.582031 -13.117188 27.398438 -12.351562 27.328125 -11.3125 C 27.253906 -10.28125 27.21875 -9.171875 27.21875 -7.984375 C 27.21875 -7.242188 27.21875 -6.351562 27.21875 -5.3125 C 27.21875 -4.28125 27.253906 -3.382812 27.328125 -2.625 C 27.398438 -1.863281 27.5625 -1.484375 27.8125 -1.484375 C 28.050781 -1.484375 28.378906 -1.835938 28.796875 -2.546875 C 29.222656 -3.265625 29.679688 -4.148438 30.171875 -5.203125 C 30.660156 -6.265625 31.128906 -7.3125 31.578125 -8.34375 C 32.023438 -9.382812 32.394531 -10.203125 32.6875 -10.796875 C 32.78125 -11.140625 33 -11.347656 33.34375 -11.421875 C 33.695312 -11.492188 33.875 -11.65625 33.875 -11.90625 C 33.914062 -12.445312 34 -12.890625 34.125 -13.234375 C 34.25 -13.578125 34.484375 -13.945312 34.828125 -14.34375 C 35.328125 -14.84375 35.75 -15.484375 36.09375 -16.265625 C 36.4375 -17.054688 36.863281 -17.757812 37.375 -18.375 C 37.894531 -18.988281 38.625 -19.296875 39.5625 -19.296875 C 40.15625 -19.296875 40.453125 -19.023438 40.453125 -18.484375 C 40.453125 -18.046875 40.226562 -17.414062 39.78125 -16.59375 C 39.34375 -15.78125 38.863281 -15.015625 38.34375 -14.296875 C 37.820312 -13.585938 37.390625 -13.132812 37.046875 -12.9375 C 36.847656 -12.59375 36.785156 -12.1875 36.859375 -11.71875 C 36.941406 -11.25 36.804688 -10.894531 36.453125 -10.65625 C 35.867188 -10.0625 35.523438 -9.429688 35.421875 -8.765625 C 35.328125 -8.097656 35.054688 -7.519531 34.609375 -7.03125 C 34.609375 -7.03125 34.519531 -6.695312 34.34375 -6.03125 C 34.175781 -5.363281 34.003906 -4.707031 33.828125 -4.0625 C 33.660156 -3.425781 33.578125 -3.109375 33.578125 -3.109375 C 33.578125 -2.910156 33.597656 -2.6875 33.640625 -2.4375 C 33.691406 -2.195312 33.71875 -1.953125 33.71875 -1.703125 C 33.71875 -0.960938 33.472656 -0.347656 32.984375 0.140625 C 32.492188 0.640625 32.25 1.132812 32.25 1.625 C 32.25 2.019531 32.222656 2.351562 32.171875 2.625 C 32.117188 2.894531 31.894531 3.128906 31.5 3.328125 C 31.40625 3.378906 31.144531 3.859375 30.71875 4.765625 C 30.300781 5.679688 29.820312 6.382812 29.28125 6.875 Z M 23.890625 -15.453125 C 23.890625 -15.503906 23.835938 -15.578125 23.734375 -15.671875 C 23.734375 -15.671875 23.6875 -15.625 23.59375 -15.53125 C 23.59375 -15.332031 23.640625 -15.1875 23.734375 -15.09375 C 23.734375 -15.132812 23.785156 -15.253906 23.890625 -15.453125 Z M 26.546875 -4.140625 L 26.46875 -3.921875 L 26.625 -3.921875 Z M 26.546875 -4.140625 "/></g></g></g><g fill="#8cd024" fill-opacity="1"><g transform="translate(390.426006, 94.499996)"><g><path d="M 7.90625 3.46875 C 7.414062 3.28125 7.109375 2.9375 6.984375 2.4375 C 6.859375 1.945312 6.601562 1.578125 6.21875 1.328125 C 6.164062 1.273438 6.101562 0.914062 6.03125 0.25 C 5.957031 -0.40625 5.878906 -1.140625 5.796875 -1.953125 C 5.722656 -2.773438 5.6875 -3.40625 5.6875 -3.84375 C 5.6875 -4.332031 5.578125 -4.820312 5.359375 -5.3125 C 5.140625 -5.8125 5.03125 -6.257812 5.03125 -6.65625 C 5.03125 -6.90625 5.140625 -7.175781 5.359375 -7.46875 C 5.578125 -7.757812 5.6875 -8.128906 5.6875 -8.578125 C 5.644531 -8.972656 5.609375 -9.378906 5.578125 -9.796875 C 5.554688 -10.210938 5.519531 -10.617188 5.46875 -11.015625 C 5.46875 -11.609375 5.296875 -12.113281 4.953125 -12.53125 C 4.609375 -12.945312 4.4375 -13.476562 4.4375 -14.125 C 4.4375 -14.957031 4.472656 -15.789062 4.546875 -16.625 C 4.617188 -17.46875 4.679688 -18.285156 4.734375 -19.078125 C 4.734375 -19.523438 4.890625 -19.90625 5.203125 -20.21875 C 5.523438 -20.539062 5.6875 -20.875 5.6875 -21.21875 C 5.6875 -21.570312 5.550781 -21.882812 5.28125 -22.15625 C 5.007812 -22.425781 4.875 -22.734375 4.875 -23.078125 C 4.875 -23.222656 4.898438 -23.378906 4.953125 -23.546875 C 5.003906 -23.722656 5.03125 -23.882812 5.03125 -24.03125 C 5.03125 -24.425781 4.976562 -24.820312 4.875 -25.21875 C 4.78125 -25.613281 4.734375 -25.984375 4.734375 -26.328125 C 4.734375 -27.015625 4.890625 -27.726562 5.203125 -28.46875 C 5.523438 -29.207031 5.6875 -29.828125 5.6875 -30.328125 C 5.6875 -30.710938 5.5625 -31.078125 5.3125 -31.421875 C 5.070312 -31.773438 4.953125 -32.148438 4.953125 -32.546875 C 4.953125 -33.671875 5.097656 -34.800781 5.390625 -35.9375 C 5.691406 -37.070312 5.84375 -38.179688 5.84375 -39.265625 C 5.84375 -39.566406 5.789062 -39.863281 5.6875 -40.15625 C 5.59375 -40.445312 5.546875 -40.742188 5.546875 -41.046875 C 5.546875 -41.285156 5.628906 -41.492188 5.796875 -41.671875 C 5.972656 -41.847656 6.0625 -42.035156 6.0625 -42.234375 C 6.0625 -42.472656 6.007812 -42.675781 5.90625 -42.84375 C 5.8125 -43.019531 5.765625 -43.207031 5.765625 -43.40625 C 5.765625 -43.65625 5.890625 -43.9375 6.140625 -44.25 C 6.390625 -44.570312 6.515625 -44.984375 6.515625 -45.484375 C 6.515625 -45.878906 6.414062 -46.25 6.21875 -46.59375 C 6.019531 -46.9375 5.921875 -47.253906 5.921875 -47.546875 C 5.921875 -47.847656 6.140625 -48.28125 6.578125 -48.84375 C 7.023438 -49.414062 7.25 -50.171875 7.25 -51.109375 C 7.25 -51.492188 7.1875 -51.847656 7.0625 -52.171875 C 6.9375 -52.492188 6.875 -52.828125 6.875 -53.171875 C 6.875 -54.109375 6.984375 -55.054688 7.203125 -56.015625 C 7.429688 -56.984375 7.546875 -57.929688 7.546875 -58.859375 C 7.546875 -59.109375 7.507812 -59.351562 7.4375 -59.59375 C 7.363281 -59.84375 7.328125 -60.066406 7.328125 -60.265625 C 7.328125 -60.617188 7.742188 -60.878906 8.578125 -61.046875 C 9.410156 -61.222656 10.101562 -61.3125 10.65625 -61.3125 C 11.9375 -61.3125 12.757812 -61 13.125 -60.375 C 13.5 -59.757812 13.6875 -58.640625 13.6875 -57.015625 C 13.6875 -55.242188 13.472656 -53.359375 13.046875 -51.359375 C 12.628906 -49.359375 12.421875 -47.375 12.421875 -45.40625 C 12.421875 -44.957031 12.269531 -44.335938 11.96875 -43.546875 C 11.675781 -42.765625 11.53125 -41.878906 11.53125 -40.890625 C 11.832031 -40.691406 11.984375 -40.421875 11.984375 -40.078125 C 11.984375 -39.929688 11.957031 -39.785156 11.90625 -39.640625 C 11.851562 -39.492188 11.78125 -39.34375 11.6875 -39.1875 C 11.289062 -38.207031 11.039062 -37.148438 10.9375 -36.015625 C 10.84375 -34.878906 10.796875 -33.769531 10.796875 -32.6875 C 10.796875 -32.195312 10.660156 -31.816406 10.390625 -31.546875 C 10.117188 -31.273438 9.984375 -30.988281 9.984375 -30.6875 C 9.984375 -30.394531 10.082031 -30.148438 10.28125 -29.953125 C 10.226562 -29.703125 10.175781 -29.425781 10.125 -29.125 C 10.082031 -28.832031 10.007812 -28.566406 9.90625 -28.328125 C 9.90625 -28.128906 10.003906 -28.03125 10.203125 -28.03125 C 10.398438 -28.03125 10.867188 -28.484375 11.609375 -29.390625 C 12.347656 -30.304688 13.257812 -31.378906 14.34375 -32.609375 C 15.425781 -33.847656 16.597656 -34.921875 17.859375 -35.828125 C 19.117188 -36.742188 20.335938 -37.203125 21.515625 -37.203125 C 22.160156 -37.203125 22.703125 -36.914062 23.140625 -36.34375 C 23.585938 -35.78125 23.8125 -35.226562 23.8125 -34.6875 C 23.8125 -33.75 23.515625 -32.648438 22.921875 -31.390625 C 22.328125 -30.128906 21.785156 -28.984375 21.296875 -27.953125 C 20.703125 -26.722656 19.875 -25.367188 18.8125 -23.890625 C 17.757812 -22.410156 16.640625 -21.175781 15.453125 -20.1875 C 15.210938 -19.9375 15.015625 -19.664062 14.859375 -19.375 C 15.203125 -18.039062 16.003906 -16.625 17.265625 -15.125 C 18.523438 -13.625 19.695312 -12.28125 20.78125 -11.09375 C 21.46875 -10.351562 22.242188 -9.710938 23.109375 -9.171875 C 23.972656 -8.628906 24.722656 -7.9375 25.359375 -7.09375 C 26.097656 -6.351562 26.863281 -5.882812 27.65625 -5.6875 C 28.445312 -5.5 29.25 -5.242188 30.0625 -4.921875 C 30.875 -4.597656 31.625 -3.867188 32.3125 -2.734375 C 31.914062 -1.941406 31.375 -1.3125 30.6875 -0.84375 C 30 -0.375 29.1875 -0.140625 28.25 -0.140625 C 28.195312 -0.140625 27.789062 -0.210938 27.03125 -0.359375 C 26.269531 -0.515625 25.378906 -0.710938 24.359375 -0.953125 C 23.347656 -1.203125 22.4375 -1.5 21.625 -1.84375 C 20.8125 -2.1875 20.304688 -2.554688 20.109375 -2.953125 C 19.960938 -3.453125 19.691406 -3.773438 19.296875 -3.921875 C 18.898438 -4.066406 18.554688 -4.265625 18.265625 -4.515625 C 17.378906 -5.398438 16.429688 -6.273438 15.421875 -7.140625 C 14.410156 -8.003906 13.5625 -8.976562 12.875 -10.0625 C 12.425781 -10.75 11.867188 -11.226562 11.203125 -11.5 C 10.535156 -11.769531 10.101562 -11.90625 9.90625 -11.90625 C 9.90625 -11.851562 9.707031 -11.601562 9.3125 -11.15625 C 8.914062 -10.71875 8.71875 -10.375 8.71875 -10.125 C 8.71875 -9.832031 8.816406 -9.660156 9.015625 -9.609375 C 9.210938 -9.609375 9.4375 -9.25 9.6875 -8.53125 C 9.9375 -7.820312 10.171875 -7.082031 10.390625 -6.3125 C 10.609375 -5.550781 10.71875 -5.070312 10.71875 -4.875 C 10.71875 -4.675781 10.59375 -4.453125 10.34375 -4.203125 C 10.101562 -3.960938 9.984375 -3.796875 9.984375 -3.703125 C 9.984375 -3.648438 10.128906 -3.550781 10.421875 -3.40625 C 10.472656 -3.40625 10.644531 -3.046875 10.9375 -2.328125 C 11.238281 -1.609375 11.535156 -0.820312 11.828125 0.03125 C 12.128906 0.894531 12.28125 1.550781 12.28125 2 C 12.28125 2.289062 12.203125 2.789062 12.046875 3.5 C 11.898438 4.21875 11.628906 4.882812 11.234375 5.5 C 10.847656 6.125 10.257812 6.4375 9.46875 6.4375 C 8.96875 6.4375 8.53125 6.203125 8.15625 5.734375 C 7.789062 5.265625 7.609375 4.785156 7.609375 4.296875 C 7.609375 4.046875 7.6875 3.769531 7.84375 3.46875 C 7.789062 3.425781 7.765625 3.40625 7.765625 3.40625 C 7.765625 3.40625 7.738281 3.378906 7.6875 3.328125 C 7.789062 3.421875 7.863281 3.46875 7.90625 3.46875 Z M 8.71875 -28.25 C 8.675781 -28.300781 8.554688 -28.328125 8.359375 -28.328125 C 8.304688 -28.328125 8.265625 -28.300781 8.234375 -28.25 C 8.210938 -28.195312 8.203125 -28.171875 8.203125 -28.171875 C 8.253906 -28.128906 8.332031 -28.109375 8.4375 -28.109375 C 8.53125 -28.109375 8.625 -28.15625 8.71875 -28.25 Z M 20.921875 -34.6875 C 20.878906 -34.832031 20.785156 -34.90625 20.640625 -34.90625 C 19.992188 -34.90625 19.210938 -34.546875 18.296875 -33.828125 C 17.390625 -33.117188 16.503906 -32.257812 15.640625 -31.25 C 14.773438 -30.238281 14.097656 -29.285156 13.609375 -28.390625 C 13.359375 -27.953125 13.007812 -27.382812 12.5625 -26.6875 C 12.125 -26 11.734375 -25.332031 11.390625 -24.6875 C 11.046875 -24.050781 10.875 -23.515625 10.875 -23.078125 C 10.875 -22.828125 11.019531 -22.628906 11.3125 -22.484375 C 11.613281 -22.335938 11.957031 -22.265625 12.34375 -22.265625 C 12.539062 -22.265625 12.691406 -22.285156 12.796875 -22.328125 C 14.367188 -23.171875 15.5 -24.132812 16.1875 -25.21875 C 16.882812 -26.300781 17.675781 -27.382812 18.5625 -28.46875 C 18.65625 -28.613281 18.882812 -28.984375 19.25 -29.578125 C 19.625 -30.171875 19.992188 -30.921875 20.359375 -31.828125 C 20.734375 -32.742188 20.921875 -33.695312 20.921875 -34.6875 Z M 7.984375 -13.75 C 7.984375 -13.851562 7.984375 -13.976562 7.984375 -14.125 C 7.984375 -14.269531 7.984375 -14.367188 7.984375 -14.421875 C 7.984375 -14.765625 7.9375 -14.9375 7.84375 -14.9375 C 7.84375 -14.9375 7.742188 -14.765625 7.546875 -14.421875 C 7.347656 -14.078125 7.148438 -13.742188 6.953125 -13.421875 C 6.753906 -13.097656 6.65625 -12.914062 6.65625 -12.875 C 6.65625 -12.769531 6.71875 -12.644531 6.84375 -12.5 C 6.96875 -12.351562 7.050781 -12.28125 7.09375 -12.28125 C 7.632812 -12.375 7.914062 -12.601562 7.9375 -12.96875 C 7.96875 -13.34375 7.984375 -13.601562 7.984375 -13.75 Z M 7.84375 -6.140625 C 7.988281 -6.429688 8.0625 -6.726562 8.0625 -7.03125 C 8.0625 -7.320312 8.046875 -7.578125 8.015625 -7.796875 C 7.992188 -8.023438 7.882812 -8.238281 7.6875 -8.4375 C 7.539062 -8.4375 7.46875 -8.359375 7.46875 -8.203125 C 7.519531 -7.859375 7.546875 -7.515625 7.546875 -7.171875 C 7.546875 -6.828125 7.644531 -6.484375 7.84375 -6.140625 Z M 8.71875 -2.59375 C 8.71875 -2.539062 8.707031 -2.5 8.6875 -2.46875 C 8.664062 -2.445312 8.65625 -2.410156 8.65625 -2.359375 C 8.65625 -2.316406 8.675781 -2.242188 8.71875 -2.140625 C 8.769531 -2.046875 8.820312 -1.945312 8.875 -1.84375 C 9.070312 -2.039062 9.171875 -2.238281 9.171875 -2.4375 C 9.171875 -2.832031 9.070312 -3.03125 8.875 -3.03125 C 8.820312 -3.03125 8.796875 -2.96875 8.796875 -2.84375 C 8.796875 -2.71875 8.769531 -2.632812 8.71875 -2.59375 Z M 8.0625 -10.203125 C 7.957031 -10.398438 7.882812 -10.523438 7.84375 -10.578125 C 7.539062 -10.472656 7.390625 -10.347656 7.390625 -10.203125 C 7.390625 -9.953125 7.488281 -9.828125 7.6875 -9.828125 C 7.832031 -9.828125 7.957031 -9.953125 8.0625 -10.203125 Z M 7.90625 -23.375 C 7.90625 -23.414062 7.941406 -23.484375 8.015625 -23.578125 C 8.097656 -23.679688 8.140625 -23.804688 8.140625 -23.953125 C 8.140625 -24.054688 8.0625 -24.179688 7.90625 -24.328125 C 7.757812 -24.273438 7.6875 -24.101562 7.6875 -23.8125 C 7.6875 -23.71875 7.6875 -23.65625 7.6875 -23.625 C 7.6875 -23.601562 7.757812 -23.519531 7.90625 -23.375 Z M 6.796875 -15.96875 C 6.898438 -16.070312 6.953125 -16.148438 6.953125 -16.203125 C 6.953125 -16.347656 6.898438 -16.566406 6.796875 -16.859375 C 6.703125 -16.859375 6.640625 -16.796875 6.609375 -16.671875 C 6.585938 -16.546875 6.578125 -16.4375 6.578125 -16.34375 C 6.578125 -16.25 6.648438 -16.125 6.796875 -15.96875 Z M 8.953125 -13.53125 L 8.796875 -13.3125 L 9.015625 -13.3125 Z M 8.953125 -13.53125 "/></g></g></g></svg>