<svg xmlns="http://www.w3.org/2000/svg" xmlns:xlink="http://www.w3.org/1999/xlink" width="600" zoomAndPan="magnify" viewBox="0 0 450 149.999998" height="200" preserveAspectRatio="xMidYMid meet" version="1.0"><defs><g/><clipPath id="fb680554a4"><path d="M 7.082031 22 L 70 22 L 70 134.964844 L 7.082031 134.964844 Z M 7.082031 22 " clip-rule="nonzero"/></clipPath></defs><path fill="#8cd024" d="M 67.960938 97.597656 C 67.960938 97.597656 66.207031 75.492188 85.40625 67.035156 C 104.609375 58.578125 106.371094 50.433594 106.371094 50.433594 C 106.371094 50.433594 123.421875 102.871094 72.828125 101.382812 C 72.828125 101.382812 99.484375 88.175781 101.171875 67.449219 C 101.171875 67.449219 97.320312 86.296875 67.960938 97.597656 " fill-opacity="1" fill-rule="nonzero"/><path fill="#8cd024" d="M 54.996094 114.722656 C 54.996094 114.722656 41.882812 118.769531 34.183594 108.316406 C 26.484375 97.863281 21.332031 97.898438 21.332031 97.898438 C 21.332031 97.898438 50.6875 80.523438 56.625 111.269531 C 56.625 111.269531 45.050781 96.960938 32.304688 98.742188 C 32.304688 98.742188 44.207031 98.523438 54.996094 114.722656 " fill-opacity="1" fill-rule="nonzero"/><g clip-path="url(#fb680554a4)"><path fill="#427a01" d="M 67.253906 133.988281 C 67.632812 112.101562 65.207031 94.820312 61.425781 81.234375 C 53.507812 48.898438 36.203125 37.523438 30.484375 34.566406 C 29.917969 34.261719 29.601562 34.128906 29.601562 34.128906 C 28.964844 33.828125 28.609375 33.699219 28.609375 33.699219 C 55.734375 40.035156 67.96875 77.957031 67.96875 77.957031 C 79.933594 11.21875 7.09375 23.449219 7.09375 23.449219 C 7.09375 23.449219 17.535156 27.390625 24.945312 54.503906 C 30.152344 73.566406 46.347656 80.234375 55.507812 82.511719 C 62.75 110.894531 58.050781 135.003906 58.050781 135.003906 L 67.253906 133.988281 " fill-opacity="1" fill-rule="nonzero"/></g><g fill="#427a01" fill-opacity="1"><g transform="translate(123.687419, 105.151157)"><g><path d="M 27.484375 -47.328125 L 46.59375 0 L 35 0 L 31.5 -9.46875 L 13.484375 -9.46875 L 9.984375 0 L -1.609375 0 L 17.5 -47.328125 Z M 27.828125 -18.9375 L 22.546875 -32.703125 L 22.4375 -32.703125 L 17.15625 -18.9375 Z M 27.828125 -18.9375 "/></g></g></g><g fill="#427a01" fill-opacity="1"><g transform="translate(171.366387, 105.151157)"><g><path d="M 2.125 7.234375 L 10.4375 3.15625 C 11.96875 5.675781 14.628906 6.9375 18.421875 6.9375 C 20.179688 6.9375 21.816406 6.375 23.328125 5.25 C 24.835938 4.125 25.59375 2.394531 25.59375 0.0625 L 25.59375 -2.125 C 23.789062 -0.132812 20.578125 0.859375 15.953125 0.859375 C 11.703125 0.859375 8.195312 -0.640625 5.4375 -3.640625 C 2.6875 -6.640625 1.3125 -10.320312 1.3125 -14.6875 C 1.3125 -19.050781 2.6875 -22.742188 5.4375 -25.765625 C 8.195312 -28.785156 11.703125 -30.296875 15.953125 -30.296875 C 19.734375 -30.296875 22.890625 -29.128906 25.421875 -26.796875 L 25.59375 -26.796875 L 25.59375 -29.4375 L 35.75 -29.4375 L 35.75 0.796875 C 35.75 5.578125 34.160156 9.269531 30.984375 11.875 C 27.804688 14.476562 23.617188 15.78125 18.421875 15.78125 C 10.003906 15.78125 4.570312 12.929688 2.125 7.234375 Z M 14.078125 -19.671875 C 12.765625 -18.378906 12.109375 -16.71875 12.109375 -14.6875 C 12.109375 -12.65625 12.738281 -11 14 -9.71875 C 15.257812 -8.4375 16.921875 -7.796875 18.984375 -7.796875 C 20.972656 -7.796875 22.609375 -8.445312 23.890625 -9.75 C 25.171875 -11.050781 25.8125 -12.695312 25.8125 -14.6875 C 25.8125 -16.71875 25.148438 -18.378906 23.828125 -19.671875 C 22.515625 -20.972656 20.898438 -21.625 18.984375 -21.625 C 17.035156 -21.625 15.398438 -20.972656 14.078125 -19.671875 Z M 14.078125 -19.671875 "/></g></g></g><g fill="#427a01" fill-opacity="1"><g transform="translate(213.25049, 105.151157)"><g><path d="M 3.4375 0 L 3.4375 -29.4375 L 13.59375 -29.4375 L 13.59375 -25.1875 L 13.71875 -25.1875 C 13.789062 -25.34375 13.910156 -25.535156 14.078125 -25.765625 C 14.253906 -25.992188 14.628906 -26.394531 15.203125 -26.96875 C 15.773438 -27.539062 16.382812 -28.054688 17.03125 -28.515625 C 17.6875 -28.972656 18.53125 -29.382812 19.5625 -29.75 C 20.59375 -30.113281 21.644531 -30.296875 22.71875 -30.296875 C 23.832031 -30.296875 24.921875 -30.140625 25.984375 -29.828125 C 27.054688 -29.523438 27.84375 -29.222656 28.34375 -28.921875 L 29.140625 -28.453125 L 24.90625 -19.859375 C 23.632812 -20.921875 21.875 -21.453125 19.625 -21.453125 C 18.394531 -21.453125 17.335938 -21.1875 16.453125 -20.65625 C 15.578125 -20.125 14.957031 -19.472656 14.59375 -18.703125 C 14.238281 -17.941406 13.984375 -17.289062 13.828125 -16.75 C 13.671875 -16.21875 13.59375 -15.796875 13.59375 -15.484375 L 13.59375 0 Z M 3.4375 0 "/></g></g></g><g fill="#427a01" fill-opacity="1"><g transform="translate(244.520221, 105.151157)"><g><path d="M 6.21875 -3.5 C 2.945312 -6.40625 1.3125 -10.132812 1.3125 -14.6875 C 1.3125 -19.238281 3.015625 -22.976562 6.421875 -25.90625 C 9.828125 -28.832031 14.035156 -30.296875 19.046875 -30.296875 C 23.984375 -30.296875 28.144531 -28.820312 31.53125 -25.875 C 34.914062 -22.925781 36.609375 -19.195312 36.609375 -14.6875 C 36.609375 -10.175781 34.953125 -6.457031 31.640625 -3.53125 C 28.328125 -0.601562 24.128906 0.859375 19.046875 0.859375 C 13.765625 0.859375 9.488281 -0.59375 6.21875 -3.5 Z M 14.078125 -19.671875 C 12.765625 -18.378906 12.109375 -16.71875 12.109375 -14.6875 C 12.109375 -12.65625 12.738281 -11 14 -9.71875 C 15.257812 -8.4375 16.921875 -7.796875 18.984375 -7.796875 C 20.972656 -7.796875 22.609375 -8.445312 23.890625 -9.75 C 25.171875 -11.050781 25.8125 -12.695312 25.8125 -14.6875 C 25.8125 -16.71875 25.148438 -18.378906 23.828125 -19.671875 C 22.515625 -20.972656 20.898438 -21.625 18.984375 -21.625 C 17.035156 -21.625 15.398438 -20.972656 14.078125 -19.671875 Z M 14.078125 -19.671875 "/></g></g></g><g fill="#8cd024" fill-opacity="1"><g transform="translate(285.148351, 105.151157)"><g><path d="M 14.234375 -47.328125 L 14.234375 -9.46875 L 30.53125 -9.46875 L 30.53125 0 L 3.4375 0 L 3.4375 -47.328125 Z M 14.234375 -47.328125 "/></g></g></g><g fill="#8cd024" fill-opacity="1"><g transform="translate(320.26221, 105.151157)"><g><path d="M 4.421875 -45.84375 C 5.609375 -47.03125 7.019531 -47.625 8.65625 -47.625 C 10.300781 -47.625 11.71875 -47.03125 12.90625 -45.84375 C 14.09375 -44.65625 14.6875 -43.238281 14.6875 -41.59375 C 14.6875 -39.945312 14.09375 -38.53125 12.90625 -37.34375 C 11.71875 -36.164062 10.300781 -35.578125 8.65625 -35.578125 C 7.019531 -35.578125 5.609375 -36.164062 4.421875 -37.34375 C 3.234375 -38.53125 2.640625 -39.945312 2.640625 -41.59375 C 2.640625 -43.238281 3.234375 -44.65625 4.421875 -45.84375 Z M 3.4375 -29.4375 L 3.4375 0 L 13.59375 0 L 13.59375 -29.4375 Z M 3.4375 -29.4375 "/></g></g></g><g fill="#8cd024" fill-opacity="1"><g transform="translate(340.286451, 105.151157)"><g><path d="M 3.4375 0 L 3.4375 -29.4375 L 13.59375 -29.4375 L 13.59375 -26.328125 L 13.71875 -26.328125 C 16.351562 -28.972656 19.160156 -30.296875 22.140625 -30.296875 C 23.597656 -30.296875 25.039062 -30.101562 26.46875 -29.71875 C 27.90625 -29.332031 29.285156 -28.738281 30.609375 -27.9375 C 31.929688 -27.132812 33.003906 -25.992188 33.828125 -24.515625 C 34.648438 -23.046875 35.0625 -21.335938 35.0625 -19.390625 L 35.0625 0 L 24.90625 0 L 24.90625 -16.640625 C 24.90625 -18.171875 24.414062 -19.507812 23.4375 -20.65625 C 22.457031 -21.800781 21.1875 -22.375 19.625 -22.375 C 18.09375 -22.375 16.703125 -21.78125 15.453125 -20.59375 C 14.210938 -19.40625 13.59375 -18.085938 13.59375 -16.640625 L 13.59375 0 Z M 3.4375 0 "/></g></g></g><g fill="#8cd024" fill-opacity="1"><g transform="translate(380.908306, 105.151157)"><g><path d="M 37.0625 -29.4375 L 23.0625 -15.375 L 38.4375 0 L 25.359375 0 L 13.59375 -11.765625 L 13.59375 0 L 3.4375 0 L 3.4375 -49.34375 L 13.59375 -49.34375 L 13.59375 -19.15625 L 23.875 -29.4375 Z M 37.0625 -29.4375 "/></g></g></g></svg>