<svg xmlns="http://www.w3.org/2000/svg" xmlns:xlink="http://www.w3.org/1999/xlink" width="1080" zoomAndPan="magnify" viewBox="0 0 810 809.999993" height="1080" preserveAspectRatio="xMidYMid meet" version="1.0"><path fill="#80b747" d="M 717.808594 427.503906 C 726.191406 399.820312 725.3125 367.664062 710.769531 342.945312 C 717 341.558594 729.011719 335.867188 728.632812 336.007812 C 722.316406 338.296875 715.808594 339.734375 709.113281 340.316406 C 708.523438 339.402344 707.960938 338.46875 707.332031 337.578125 C 687.039062 308.773438 652.753906 301.648438 622.785156 293.042969 C 614.246094 290.625 605.859375 287.765625 597.625 284.457031 C 589.683594 275.949219 582.105469 266.972656 574.730469 257.832031 C 549.804688 226.941406 526.011719 194.242188 494.75 170.945312 C 488.246094 166.078125 481.46875 161.632812 474.414062 157.605469 C 467.359375 153.578125 460.082031 150.003906 452.585938 146.878906 C 445.085938 143.753906 437.425781 141.105469 429.597656 138.933594 C 421.773438 136.757812 413.839844 135.074219 405.804688 133.882812 C 374.515625 129.347656 341.816406 132.355469 313.148438 147.953125 C 306.085938 151.722656 299.570312 156.273438 293.59375 161.605469 C 287.621094 166.9375 282.363281 172.898438 277.816406 179.488281 C 268.8125 192.773438 263.785156 208.433594 261.789062 224.863281 C 257.789062 257.792969 263.640625 291.855469 253.023438 323.660156 C 242.023438 356.621094 218.019531 381.792969 197.050781 406.964844 C 176.371094 431.785156 155.839844 458.96875 148.605469 492.738281 C 142.496094 521.25 145.875 551.304688 155.773438 578.234375 C 165.96875 605.976562 183.109375 630.351562 204.84375 647.933594 C 227.859375 666.546875 256.136719 676.183594 284.292969 678.339844 C 313.144531 680.550781 342.519531 674.835938 369.382812 663.027344 C 383.578125 656.769531 396.917969 649.035156 409.394531 639.816406 C 425.078125 628.269531 439.628906 614.960938 454.5625 602.269531 C 469.332031 589.71875 484.589844 577.9375 501.304688 568.839844 C 517.417969 560.070312 534.394531 553.539062 551.484375 547.605469 C 585.796875 535.695312 621.050781 525.941406 652.8125 506.578125 C 681.695312 488.96875 707.046875 463.035156 717.808594 427.503906 Z M 717.808594 427.503906 " fill-opacity="1" fill-rule="nonzero"/></svg>