<svg xmlns="http://www.w3.org/2000/svg" xmlns:xlink="http://www.w3.org/1999/xlink" width="1080" zoomAndPan="magnify" viewBox="0 0 810 809.999993" height="1080" preserveAspectRatio="xMidYMid meet" version="1.0"><defs><clipPath id="79208ab4a3"><path d="M 126.75 298.128906 L 711.75 298.128906 L 711.75 511.878906 L 126.75 511.878906 Z M 126.75 298.128906 " clip-rule="nonzero"/></clipPath></defs><g clip-path="url(#79208ab4a3)"><path fill="#b4b4b4" d="M 131.101562 298.421875 C 133.507812 298.421875 135.457031 300.367188 135.457031 302.773438 C 135.457031 305.179688 133.507812 307.128906 131.101562 307.128906 C 128.695312 307.128906 126.75 305.179688 126.75 302.773438 C 126.75 300.367188 128.695312 298.421875 131.101562 298.421875 Z M 174.769531 302.773438 C 174.769531 305.179688 176.71875 307.128906 179.125 307.128906 C 181.527344 307.128906 183.476562 305.179688 183.476562 302.773438 C 183.476562 300.367188 181.527344 298.421875 179.125 298.421875 C 176.71875 298.421875 174.769531 300.367188 174.769531 302.773438 Z M 222.789062 302.773438 C 222.789062 305.179688 224.738281 307.128906 227.144531 307.128906 C 229.550781 307.128906 231.5 305.179688 231.5 302.773438 C 231.5 300.367188 229.550781 298.421875 227.144531 298.421875 C 224.738281 298.421875 222.789062 300.367188 222.789062 302.773438 Z M 270.808594 302.773438 C 270.808594 305.179688 272.757812 307.128906 275.164062 307.128906 C 277.570312 307.128906 279.519531 305.179688 279.519531 302.773438 C 279.519531 300.367188 277.570312 298.421875 275.164062 298.421875 C 272.757812 298.421875 270.808594 300.367188 270.808594 302.773438 Z M 318.832031 302.773438 C 318.832031 305.179688 320.777344 307.128906 323.183594 307.128906 C 325.589844 307.128906 327.539062 305.179688 327.539062 302.773438 C 327.539062 300.367188 325.589844 298.421875 323.183594 298.421875 C 320.777344 298.421875 318.832031 300.367188 318.832031 302.773438 Z M 366.851562 302.773438 C 366.851562 305.179688 368.800781 307.128906 371.207031 307.128906 C 373.613281 307.128906 375.558594 305.179688 375.558594 302.773438 C 375.558594 300.367188 373.613281 298.421875 371.207031 298.421875 C 368.800781 298.421875 366.851562 300.367188 366.851562 302.773438 Z M 414.871094 302.773438 C 414.871094 305.179688 416.820312 307.128906 419.226562 307.128906 C 421.632812 307.128906 423.582031 305.179688 423.582031 302.773438 C 423.582031 300.367188 421.632812 298.421875 419.226562 298.421875 C 416.820312 298.421875 414.871094 300.367188 414.871094 302.773438 Z M 462.890625 302.773438 C 462.890625 305.179688 464.839844 307.128906 467.246094 307.128906 C 469.652344 307.128906 471.601562 305.179688 471.601562 302.773438 C 471.601562 300.367188 469.652344 298.421875 467.246094 298.421875 C 464.839844 298.421875 462.890625 300.367188 462.890625 302.773438 Z M 510.914062 302.773438 C 510.914062 305.179688 512.859375 307.128906 515.265625 307.128906 C 517.671875 307.128906 519.621094 305.179688 519.621094 302.773438 C 519.621094 300.367188 517.671875 298.421875 515.265625 298.421875 C 512.859375 298.421875 510.914062 300.367188 510.914062 302.773438 Z M 558.933594 302.773438 C 558.933594 305.179688 560.882812 307.128906 563.289062 307.128906 C 565.695312 307.128906 567.640625 305.179688 567.640625 302.773438 C 567.640625 300.367188 565.695312 298.421875 563.289062 298.421875 C 560.882812 298.421875 558.933594 300.367188 558.933594 302.773438 Z M 606.953125 302.773438 C 606.953125 305.179688 608.902344 307.128906 611.308594 307.128906 C 613.714844 307.128906 615.664062 305.179688 615.664062 302.773438 C 615.664062 300.367188 613.714844 298.421875 611.308594 298.421875 C 608.902344 298.421875 606.953125 300.367188 606.953125 302.773438 Z M 654.972656 302.773438 C 654.972656 305.179688 656.921875 307.128906 659.328125 307.128906 C 661.734375 307.128906 663.683594 305.179688 663.683594 302.773438 C 663.683594 300.367188 661.734375 298.421875 659.328125 298.421875 C 656.921875 298.421875 654.972656 300.367188 654.972656 302.773438 Z M 702.996094 302.773438 C 702.996094 305.179688 704.945312 307.128906 707.347656 307.128906 C 709.753906 307.128906 711.703125 305.179688 711.703125 302.773438 C 711.703125 300.367188 709.753906 298.421875 707.347656 298.421875 C 704.945312 298.421875 702.996094 300.367188 702.996094 302.773438 Z M 126.75 343.699219 C 126.75 346.105469 128.695312 348.054688 131.101562 348.054688 C 133.507812 348.054688 135.457031 346.105469 135.457031 343.699219 C 135.457031 341.292969 133.507812 339.34375 131.101562 339.34375 C 128.695312 339.34375 126.75 341.292969 126.75 343.699219 Z M 174.769531 343.699219 C 174.769531 346.105469 176.71875 348.054688 179.125 348.054688 C 181.527344 348.054688 183.476562 346.105469 183.476562 343.699219 C 183.476562 341.292969 181.527344 339.34375 179.125 339.34375 C 176.71875 339.34375 174.769531 341.292969 174.769531 343.699219 Z M 222.789062 343.699219 C 222.789062 346.105469 224.738281 348.054688 227.144531 348.054688 C 229.550781 348.054688 231.5 346.105469 231.5 343.699219 C 231.5 341.292969 229.550781 339.34375 227.144531 339.34375 C 224.738281 339.34375 222.789062 341.292969 222.789062 343.699219 Z M 270.808594 343.699219 C 270.808594 346.105469 272.757812 348.054688 275.164062 348.054688 C 277.570312 348.054688 279.519531 346.105469 279.519531 343.699219 C 279.519531 341.292969 277.570312 339.34375 275.164062 339.34375 C 272.757812 339.34375 270.808594 341.292969 270.808594 343.699219 Z M 318.832031 343.699219 C 318.832031 346.105469 320.777344 348.054688 323.183594 348.054688 C 325.589844 348.054688 327.539062 346.105469 327.539062 343.699219 C 327.539062 341.292969 325.589844 339.34375 323.183594 339.34375 C 320.777344 339.34375 318.832031 341.292969 318.832031 343.699219 Z M 366.851562 343.699219 C 366.851562 346.105469 368.800781 348.054688 371.207031 348.054688 C 373.613281 348.054688 375.558594 346.105469 375.558594 343.699219 C 375.558594 341.292969 373.613281 339.34375 371.207031 339.34375 C 368.800781 339.34375 366.851562 341.292969 366.851562 343.699219 Z M 414.871094 343.699219 C 414.871094 346.105469 416.820312 348.054688 419.226562 348.054688 C 421.632812 348.054688 423.582031 346.105469 423.582031 343.699219 C 423.582031 341.292969 421.632812 339.34375 419.226562 339.34375 C 416.820312 339.34375 414.871094 341.292969 414.871094 343.699219 Z M 462.890625 343.699219 C 462.890625 346.105469 464.839844 348.054688 467.246094 348.054688 C 469.652344 348.054688 471.601562 346.105469 471.601562 343.699219 C 471.601562 341.292969 469.652344 339.34375 467.246094 339.34375 C 464.839844 339.34375 462.890625 341.292969 462.890625 343.699219 Z M 510.914062 343.699219 C 510.914062 346.105469 512.859375 348.054688 515.265625 348.054688 C 517.671875 348.054688 519.621094 346.105469 519.621094 343.699219 C 519.621094 341.292969 517.671875 339.34375 515.265625 339.34375 C 512.859375 339.34375 510.914062 341.292969 510.914062 343.699219 Z M 558.933594 343.699219 C 558.933594 346.105469 560.882812 348.054688 563.289062 348.054688 C 565.695312 348.054688 567.640625 346.105469 567.640625 343.699219 C 567.640625 341.292969 565.695312 339.34375 563.289062 339.34375 C 560.882812 339.34375 558.933594 341.292969 558.933594 343.699219 Z M 606.953125 343.699219 C 606.953125 346.105469 608.902344 348.054688 611.308594 348.054688 C 613.714844 348.054688 615.664062 346.105469 615.664062 343.699219 C 615.664062 341.292969 613.714844 339.34375 611.308594 339.34375 C 608.902344 339.34375 606.953125 341.292969 606.953125 343.699219 Z M 654.972656 343.699219 C 654.972656 346.105469 656.921875 348.054688 659.328125 348.054688 C 661.734375 348.054688 663.683594 346.105469 663.683594 343.699219 C 663.683594 341.292969 661.734375 339.34375 659.328125 339.34375 C 656.921875 339.34375 654.972656 341.292969 654.972656 343.699219 Z M 702.996094 343.699219 C 702.996094 346.105469 704.945312 348.054688 707.347656 348.054688 C 709.753906 348.054688 711.703125 346.105469 711.703125 343.699219 C 711.703125 341.292969 709.753906 339.34375 707.347656 339.34375 C 704.945312 339.34375 702.996094 341.292969 702.996094 343.699219 Z M 126.75 384.597656 C 126.75 387.003906 128.695312 388.953125 131.101562 388.953125 C 133.507812 388.953125 135.457031 387.003906 135.457031 384.597656 C 135.457031 382.191406 133.507812 380.242188 131.101562 380.242188 C 128.695312 380.242188 126.75 382.191406 126.75 384.597656 Z M 174.769531 384.597656 C 174.769531 387.003906 176.71875 388.953125 179.125 388.953125 C 181.527344 388.953125 183.476562 387.003906 183.476562 384.597656 C 183.476562 382.191406 181.527344 380.242188 179.125 380.242188 C 176.71875 380.242188 174.769531 382.191406 174.769531 384.597656 Z M 222.789062 384.597656 C 222.789062 387.003906 224.738281 388.953125 227.144531 388.953125 C 229.550781 388.953125 231.5 387.003906 231.5 384.597656 C 231.5 382.191406 229.550781 380.242188 227.144531 380.242188 C 224.738281 380.242188 222.789062 382.191406 222.789062 384.597656 Z M 270.808594 384.597656 C 270.808594 387.003906 272.757812 388.953125 275.164062 388.953125 C 277.570312 388.953125 279.519531 387.003906 279.519531 384.597656 C 279.519531 382.191406 277.570312 380.242188 275.164062 380.242188 C 272.757812 380.242188 270.808594 382.191406 270.808594 384.597656 Z M 318.832031 384.597656 C 318.832031 387.003906 320.777344 388.953125 323.183594 388.953125 C 325.589844 388.953125 327.539062 387.003906 327.539062 384.597656 C 327.539062 382.191406 325.589844 380.242188 323.183594 380.242188 C 320.777344 380.242188 318.832031 382.191406 318.832031 384.597656 Z M 366.851562 384.597656 C 366.851562 387.003906 368.800781 388.953125 371.207031 388.953125 C 373.613281 388.953125 375.558594 387.003906 375.558594 384.597656 C 375.558594 382.191406 373.613281 380.242188 371.207031 380.242188 C 368.800781 380.242188 366.851562 382.191406 366.851562 384.597656 Z M 414.871094 384.597656 C 414.871094 387.003906 416.820312 388.953125 419.226562 388.953125 C 421.632812 388.953125 423.582031 387.003906 423.582031 384.597656 C 423.582031 382.191406 421.632812 380.242188 419.226562 380.242188 C 416.820312 380.242188 414.871094 382.191406 414.871094 384.597656 Z M 462.890625 384.597656 C 462.890625 387.003906 464.839844 388.953125 467.246094 388.953125 C 469.652344 388.953125 471.601562 387.003906 471.601562 384.597656 C 471.601562 382.191406 469.652344 380.242188 467.246094 380.242188 C 464.839844 380.242188 462.890625 382.191406 462.890625 384.597656 Z M 510.914062 384.597656 C 510.914062 387.003906 512.859375 388.953125 515.265625 388.953125 C 517.671875 388.953125 519.621094 387.003906 519.621094 384.597656 C 519.621094 382.191406 517.671875 380.242188 515.265625 380.242188 C 512.859375 380.242188 510.914062 382.191406 510.914062 384.597656 Z M 558.933594 384.597656 C 558.933594 387.003906 560.882812 388.953125 563.289062 388.953125 C 565.695312 388.953125 567.640625 387.003906 567.640625 384.597656 C 567.640625 382.191406 565.695312 380.242188 563.289062 380.242188 C 560.882812 380.242188 558.933594 382.191406 558.933594 384.597656 Z M 606.953125 384.597656 C 606.953125 387.003906 608.902344 388.953125 611.308594 388.953125 C 613.714844 388.953125 615.664062 387.003906 615.664062 384.597656 C 615.664062 382.191406 613.714844 380.242188 611.308594 380.242188 C 608.902344 380.242188 606.953125 382.191406 606.953125 384.597656 Z M 654.972656 384.597656 C 654.972656 387.003906 656.921875 388.953125 659.328125 388.953125 C 661.734375 388.953125 663.683594 387.003906 663.683594 384.597656 C 663.683594 382.191406 661.734375 380.242188 659.328125 380.242188 C 656.921875 380.242188 654.972656 382.191406 654.972656 384.597656 Z M 702.996094 384.597656 C 702.996094 387.003906 704.945312 388.953125 707.347656 388.953125 C 709.753906 388.953125 711.703125 387.003906 711.703125 384.597656 C 711.703125 382.191406 709.753906 380.242188 707.347656 380.242188 C 704.945312 380.242188 702.996094 382.191406 702.996094 384.597656 Z M 126.75 425.519531 C 126.75 427.925781 128.695312 429.875 131.101562 429.875 C 133.507812 429.875 135.457031 427.925781 135.457031 425.519531 C 135.457031 423.113281 133.507812 421.167969 131.101562 421.167969 C 128.695312 421.167969 126.75 423.113281 126.75 425.519531 Z M 174.769531 425.519531 C 174.769531 427.925781 176.71875 429.875 179.125 429.875 C 181.527344 429.875 183.476562 427.925781 183.476562 425.519531 C 183.476562 423.113281 181.527344 421.167969 179.125 421.167969 C 176.71875 421.167969 174.769531 423.113281 174.769531 425.519531 Z M 222.789062 425.519531 C 222.789062 427.925781 224.738281 429.875 227.144531 429.875 C 229.550781 429.875 231.5 427.925781 231.5 425.519531 C 231.5 423.113281 229.550781 421.167969 227.144531 421.167969 C 224.738281 421.167969 222.789062 423.113281 222.789062 425.519531 Z M 270.808594 425.519531 C 270.808594 427.925781 272.757812 429.875 275.164062 429.875 C 277.570312 429.875 279.519531 427.925781 279.519531 425.519531 C 279.519531 423.113281 277.570312 421.167969 275.164062 421.167969 C 272.757812 421.167969 270.808594 423.113281 270.808594 425.519531 Z M 318.832031 425.519531 C 318.832031 427.925781 320.777344 429.875 323.183594 429.875 C 325.589844 429.875 327.539062 427.925781 327.539062 425.519531 C 327.539062 423.113281 325.589844 421.167969 323.183594 421.167969 C 320.777344 421.167969 318.832031 423.113281 318.832031 425.519531 Z M 366.851562 425.519531 C 366.851562 427.925781 368.800781 429.875 371.207031 429.875 C 373.613281 429.875 375.558594 427.925781 375.558594 425.519531 C 375.558594 423.113281 373.613281 421.167969 371.207031 421.167969 C 368.800781 421.167969 366.851562 423.113281 366.851562 425.519531 Z M 414.871094 425.519531 C 414.871094 427.925781 416.820312 429.875 419.226562 429.875 C 421.632812 429.875 423.582031 427.925781 423.582031 425.519531 C 423.582031 423.113281 421.632812 421.167969 419.226562 421.167969 C 416.820312 421.167969 414.871094 423.113281 414.871094 425.519531 Z M 462.890625 425.519531 C 462.890625 427.925781 464.839844 429.875 467.246094 429.875 C 469.652344 429.875 471.601562 427.925781 471.601562 425.519531 C 471.601562 423.113281 469.652344 421.167969 467.246094 421.167969 C 464.839844 421.167969 462.890625 423.113281 462.890625 425.519531 Z M 510.914062 425.519531 C 510.914062 427.925781 512.859375 429.875 515.265625 429.875 C 517.671875 429.875 519.621094 427.925781 519.621094 425.519531 C 519.621094 423.113281 517.671875 421.167969 515.265625 421.167969 C 512.859375 421.167969 510.914062 423.113281 510.914062 425.519531 Z M 558.933594 425.519531 C 558.933594 427.925781 560.882812 429.875 563.289062 429.875 C 565.695312 429.875 567.640625 427.925781 567.640625 425.519531 C 567.640625 423.113281 565.695312 421.167969 563.289062 421.167969 C 560.882812 421.167969 558.933594 423.113281 558.933594 425.519531 Z M 606.953125 425.519531 C 606.953125 427.925781 608.902344 429.875 611.308594 429.875 C 613.714844 429.875 615.664062 427.925781 615.664062 425.519531 C 615.664062 423.113281 613.714844 421.167969 611.308594 421.167969 C 608.902344 421.167969 606.953125 423.113281 606.953125 425.519531 Z M 654.972656 425.519531 C 654.972656 427.925781 656.921875 429.875 659.328125 429.875 C 661.734375 429.875 663.683594 427.925781 663.683594 425.519531 C 663.683594 423.113281 661.734375 421.167969 659.328125 421.167969 C 656.921875 421.167969 654.972656 423.113281 654.972656 425.519531 Z M 702.996094 425.519531 C 702.996094 427.925781 704.945312 429.875 707.347656 429.875 C 709.753906 429.875 711.703125 427.925781 711.703125 425.519531 C 711.703125 423.113281 709.753906 421.167969 707.347656 421.167969 C 704.945312 421.167969 702.996094 423.113281 702.996094 425.519531 Z M 126.75 466.445312 C 126.75 468.851562 128.695312 470.796875 131.101562 470.796875 C 133.507812 470.796875 135.457031 468.851562 135.457031 466.445312 C 135.457031 464.039062 133.507812 462.089844 131.101562 462.089844 C 128.695312 462.089844 126.75 464.039062 126.75 466.445312 Z M 174.769531 466.445312 C 174.769531 468.851562 176.71875 470.796875 179.125 470.796875 C 181.527344 470.796875 183.476562 468.851562 183.476562 466.445312 C 183.476562 464.039062 181.527344 462.089844 179.125 462.089844 C 176.71875 462.089844 174.769531 464.039062 174.769531 466.445312 Z M 222.789062 466.445312 C 222.789062 468.851562 224.738281 470.796875 227.144531 470.796875 C 229.550781 470.796875 231.5 468.851562 231.5 466.445312 C 231.5 464.039062 229.550781 462.089844 227.144531 462.089844 C 224.738281 462.089844 222.789062 464.039062 222.789062 466.445312 Z M 270.808594 466.445312 C 270.808594 468.851562 272.757812 470.796875 275.164062 470.796875 C 277.570312 470.796875 279.519531 468.851562 279.519531 466.445312 C 279.519531 464.039062 277.570312 462.089844 275.164062 462.089844 C 272.757812 462.089844 270.808594 464.039062 270.808594 466.445312 Z M 318.832031 466.445312 C 318.832031 468.851562 320.777344 470.796875 323.183594 470.796875 C 325.589844 470.796875 327.539062 468.851562 327.539062 466.445312 C 327.539062 464.039062 325.589844 462.089844 323.183594 462.089844 C 320.777344 462.089844 318.832031 464.039062 318.832031 466.445312 Z M 366.851562 466.445312 C 366.851562 468.851562 368.800781 470.796875 371.207031 470.796875 C 373.613281 470.796875 375.558594 468.851562 375.558594 466.445312 C 375.558594 464.039062 373.613281 462.089844 371.207031 462.089844 C 368.800781 462.089844 366.851562 464.039062 366.851562 466.445312 Z M 414.871094 466.445312 C 414.871094 468.851562 416.820312 470.796875 419.226562 470.796875 C 421.632812 470.796875 423.582031 468.851562 423.582031 466.445312 C 423.582031 464.039062 421.632812 462.089844 419.226562 462.089844 C 416.820312 462.089844 414.871094 464.039062 414.871094 466.445312 Z M 462.890625 466.445312 C 462.890625 468.851562 464.839844 470.796875 467.246094 470.796875 C 469.652344 470.796875 471.601562 468.851562 471.601562 466.445312 C 471.601562 464.039062 469.652344 462.089844 467.246094 462.089844 C 464.839844 462.089844 462.890625 464.039062 462.890625 466.445312 Z M 510.914062 466.445312 C 510.914062 468.851562 512.859375 470.796875 515.265625 470.796875 C 517.671875 470.796875 519.621094 468.851562 519.621094 466.445312 C 519.621094 464.039062 517.671875 462.089844 515.265625 462.089844 C 512.859375 462.089844 510.914062 464.039062 510.914062 466.445312 Z M 558.933594 466.445312 C 558.933594 468.851562 560.882812 470.796875 563.289062 470.796875 C 565.695312 470.796875 567.640625 468.851562 567.640625 466.445312 C 567.640625 464.039062 565.695312 462.089844 563.289062 462.089844 C 560.882812 462.089844 558.933594 464.039062 558.933594 466.445312 Z M 606.953125 466.445312 C 606.953125 468.851562 608.902344 470.796875 611.308594 470.796875 C 613.714844 470.796875 615.664062 468.851562 615.664062 466.445312 C 615.664062 464.039062 613.714844 462.089844 611.308594 462.089844 C 608.902344 462.089844 606.953125 464.039062 606.953125 466.445312 Z M 654.972656 466.445312 C 654.972656 468.851562 656.921875 470.796875 659.328125 470.796875 C 661.734375 470.796875 663.683594 468.851562 663.683594 466.445312 C 663.683594 464.039062 661.734375 462.089844 659.328125 462.089844 C 656.921875 462.089844 654.972656 464.039062 654.972656 466.445312 Z M 702.996094 466.445312 C 702.996094 468.851562 704.945312 470.796875 707.347656 470.796875 C 709.753906 470.796875 711.703125 468.851562 711.703125 466.445312 C 711.703125 464.039062 709.753906 462.089844 707.347656 462.089844 C 704.945312 462.089844 702.996094 464.039062 702.996094 466.445312 Z M 126.75 507.34375 C 126.75 509.75 128.695312 511.699219 131.101562 511.699219 C 133.507812 511.699219 135.457031 509.75 135.457031 507.34375 C 135.457031 504.9375 133.507812 502.988281 131.101562 502.988281 C 128.695312 502.988281 126.75 504.9375 126.75 507.34375 Z M 174.769531 507.34375 C 174.769531 509.75 176.71875 511.699219 179.125 511.699219 C 181.527344 511.699219 183.476562 509.75 183.476562 507.34375 C 183.476562 504.9375 181.527344 502.988281 179.125 502.988281 C 176.71875 502.988281 174.769531 504.9375 174.769531 507.34375 Z M 222.789062 507.34375 C 222.789062 509.75 224.738281 511.699219 227.144531 511.699219 C 229.550781 511.699219 231.5 509.75 231.5 507.34375 C 231.5 504.9375 229.550781 502.988281 227.144531 502.988281 C 224.738281 502.988281 222.789062 504.9375 222.789062 507.34375 Z M 270.808594 507.34375 C 270.808594 509.75 272.757812 511.699219 275.164062 511.699219 C 277.570312 511.699219 279.519531 509.75 279.519531 507.34375 C 279.519531 504.9375 277.570312 502.988281 275.164062 502.988281 C 272.757812 502.988281 270.808594 504.9375 270.808594 507.34375 Z M 318.832031 507.34375 C 318.832031 509.75 320.777344 511.699219 323.183594 511.699219 C 325.589844 511.699219 327.539062 509.75 327.539062 507.34375 C 327.539062 504.9375 325.589844 502.988281 323.183594 502.988281 C 320.777344 502.988281 318.832031 504.9375 318.832031 507.34375 Z M 366.851562 507.34375 C 366.851562 509.75 368.800781 511.699219 371.207031 511.699219 C 373.613281 511.699219 375.558594 509.75 375.558594 507.34375 C 375.558594 504.9375 373.613281 502.988281 371.207031 502.988281 C 368.800781 502.988281 366.851562 504.9375 366.851562 507.34375 Z M 414.871094 507.34375 C 414.871094 509.75 416.820312 511.699219 419.226562 511.699219 C 421.632812 511.699219 423.582031 509.75 423.582031 507.34375 C 423.582031 504.9375 421.632812 502.988281 419.226562 502.988281 C 416.820312 502.988281 414.871094 504.9375 414.871094 507.34375 Z M 462.890625 507.34375 C 462.890625 509.75 464.839844 511.699219 467.246094 511.699219 C 469.652344 511.699219 471.601562 509.75 471.601562 507.34375 C 471.601562 504.9375 469.652344 502.988281 467.246094 502.988281 C 464.839844 502.988281 462.890625 504.9375 462.890625 507.34375 Z M 510.914062 507.34375 C 510.914062 509.75 512.859375 511.699219 515.265625 511.699219 C 517.671875 511.699219 519.621094 509.75 519.621094 507.34375 C 519.621094 504.9375 517.671875 502.988281 515.265625 502.988281 C 512.859375 502.988281 510.914062 504.9375 510.914062 507.34375 Z M 558.933594 507.34375 C 558.933594 509.75 560.882812 511.699219 563.289062 511.699219 C 565.695312 511.699219 567.640625 509.75 567.640625 507.34375 C 567.640625 504.9375 565.695312 502.988281 563.289062 502.988281 C 560.882812 502.988281 558.933594 504.9375 558.933594 507.34375 Z M 606.953125 507.34375 C 606.953125 509.75 608.902344 511.699219 611.308594 511.699219 C 613.714844 511.699219 615.664062 509.75 615.664062 507.34375 C 615.664062 504.9375 613.714844 502.988281 611.308594 502.988281 C 608.902344 502.988281 606.953125 504.9375 606.953125 507.34375 Z M 654.972656 507.34375 C 654.972656 509.75 656.921875 511.699219 659.328125 511.699219 C 661.734375 511.699219 663.683594 509.75 663.683594 507.34375 C 663.683594 504.9375 661.734375 502.988281 659.328125 502.988281 C 656.921875 502.988281 654.972656 504.9375 654.972656 507.34375 Z M 702.996094 507.34375 C 702.996094 509.75 704.945312 511.699219 707.347656 511.699219 C 709.753906 511.699219 711.703125 509.75 711.703125 507.34375 C 711.703125 504.9375 709.753906 502.988281 707.347656 502.988281 C 704.945312 502.988281 702.996094 504.9375 702.996094 507.34375 Z M 702.996094 507.34375 " fill-opacity="1" fill-rule="nonzero"/></g></svg>