<svg xmlns="http://www.w3.org/2000/svg" xmlns:xlink="http://www.w3.org/1999/xlink" width="1080" zoomAndPan="magnify" viewBox="0 0 810 809.999993" height="1080" preserveAspectRatio="xMidYMid meet" version="1.0"><defs><clipPath id="b0acc30946"><path d="M 230.132812 42.539062 L 579.632812 42.539062 L 579.632812 716.789062 L 230.132812 716.789062 Z M 230.132812 42.539062 " clip-rule="nonzero"/></clipPath></defs><path fill="#064720" d="M 485.945312 330.550781 L 486.085938 330.65625 L 485.945312 330.515625 Z M 485.945312 330.550781 " fill-opacity="1" fill-rule="nonzero"/><path fill="#064720" d="M 560.058594 217.757812 L 560.199219 217.898438 L 560.09375 217.757812 Z M 560.058594 217.757812 " fill-opacity="1" fill-rule="nonzero"/><path fill="#064720" d="M 549.105469 229.375 L 549.28125 229.511719 Z M 549.105469 229.375 " fill-opacity="1" fill-rule="nonzero"/><path fill="#064720" d="M 543.316406 236.488281 L 543.457031 236.59375 Z M 543.316406 236.488281 " fill-opacity="1" fill-rule="nonzero"/><path fill="#064720" d="M 505.265625 305.40625 L 505.40625 305.507812 Z M 505.265625 305.40625 " fill-opacity="1" fill-rule="nonzero"/><g clip-path="url(#b0acc30946)"><path fill="#064720" d="M 579.207031 202.238281 C 578.890625 201.75 577.878906 201.507812 576.136719 201.75 C 565.0625 203.628906 554.226562 206.429688 543.632812 210.15625 C 534.179688 213.296875 524.867188 216.851562 515.730469 220.617188 C 499.6875 227.59375 484.132812 234.953125 467.496094 240.359375 C 463.214844 241.710938 459.054688 243.363281 455.007812 245.3125 C 451.246094 247.222656 447.644531 249.398438 444.199219 251.832031 C 420.550781 268.191406 403.84375 291.628906 391.636719 317.019531 C 385.535156 329.644531 380.339844 342.6875 374.199219 355.382812 C 372.699219 358.453125 371.234375 361.554688 369.769531 364.589844 C 369.484375 365.480469 368.949219 366.175781 368.167969 366.683594 C 368.46875 363.121094 369.15625 359.632812 370.222656 356.21875 C 372.769531 343.804688 375.351562 331.386719 378.28125 319.042969 C 379.746094 312.785156 381.304688 306.554688 382.953125 300.347656 C 384.558594 294.453125 386.929688 288.488281 388.011719 282.492188 C 388.871094 280.472656 389.582031 278.402344 390.136719 276.28125 C 393.351562 267.929688 396.070312 259.417969 398.300781 250.753906 C 400.433594 245.457031 402.285156 240.0625 403.84375 234.570312 C 404.960938 230.074219 407.007812 226.050781 409.984375 222.503906 C 413.40625 219.339844 417.222656 216.746094 421.421875 214.726562 C 429.445312 210.539062 438.128906 207.75 446.324219 203.878906 C 474.226562 190.835938 495.152344 165.722656 507.011719 137.367188 C 519.707031 106.921875 522.496094 73.019531 535.15625 42.574219 C 525.425781 46.0625 518.066406 53.804688 510.289062 60.605469 C 494.628906 74.347656 476.25 84.703125 460.832031 98.691406 C 455.347656 103.691406 450.292969 109.097656 445.671875 114.910156 C 441.050781 120.722656 436.925781 126.867188 433.289062 133.339844 C 429.652344 139.8125 426.558594 146.535156 424 153.507812 C 421.441406 160.476562 419.453125 167.605469 418.039062 174.894531 C 414.738281 191.488281 410.285156 207.761719 404.683594 223.722656 C 401.960938 231.710938 399.066406 239.660156 396.066406 247.578125 C 391.777344 258.949219 388.082031 270.527344 384.558594 282.175781 C 382.847656 287.6875 381.28125 293.164062 379.816406 298.742188 C 379.363281 300.417969 374.445312 315.972656 375.175781 316.460938 C 375.023438 316.351562 374.875 316.351562 374.722656 316.460938 C 374.390625 314.167969 373.800781 311.949219 372.945312 309.800781 C 369.96875 302.992188 367.472656 296.019531 365.445312 288.871094 C 364.863281 285.28125 364.683594 281.671875 364.90625 278.039062 C 365.128906 274.40625 365.75 270.847656 366.769531 267.355469 C 366.769531 266.167969 366.769531 264.980469 366.769531 263.867188 C 367.472656 259.089844 367.472656 254.308594 366.769531 249.53125 C 365.183594 236.894531 362.441406 224.511719 358.539062 212.386719 C 356.125 205.398438 353.3125 198.574219 350.101562 191.914062 C 348.425781 188.429688 346.613281 185.148438 344.832031 181.835938 C 339.8125 172.839844 335.453125 163.527344 329.765625 154.839844 C 326.023438 149.144531 321.976562 143.667969 317.628906 138.414062 C 313.6875 133.636719 309.222656 129.382812 305.25 124.707031 C 301.332031 120.164062 297.007812 116.046875 292.273438 112.363281 C 282.648438 105.015625 272.324219 98.828125 261.304688 93.808594 C 257.601562 91.859375 253.71875 90.382812 249.65625 89.378906 C 244.945312 88.402344 245.644531 93.074219 246.480469 96.5625 C 248.78125 106.082031 254.257812 114.628906 256.351562 124.183594 C 257.535156 131.703125 257.859375 139.261719 257.328125 146.855469 C 257.203125 154.433594 257.96875 161.917969 259.628906 169.316406 C 260.851562 174.652344 261.652344 180.128906 262.699219 185.464844 C 264.273438 191.417969 266.261719 197.230469 268.664062 202.902344 C 270.511719 208.203125 268.453125 211.96875 265.976562 216.851562 C 259.488281 229.09375 252.792969 242.417969 250.980469 256.195312 C 250.445312 258.570312 249.738281 260.898438 248.851562 263.167969 C 247.980469 266.308594 247.074219 269.410156 246.132812 272.515625 C 244.25 278.550781 242.191406 284.546875 239.925781 290.441406 C 234.761719 303.589844 230.4375 317.296875 230.4375 331.769531 C 231.078125 346.714844 233.867188 361.25 238.808594 375.367188 C 241.953125 386.089844 246.140625 396.390625 251.363281 406.269531 C 257.539062 416.324219 264.992188 425.324219 273.71875 433.261719 C 277.941406 437.484375 282.230469 441.667969 286.484375 445.851562 C 298.0625 455.09375 308.316406 465.28125 321.363281 472.535156 C 328.128906 476.230469 332.3125 479.230469 334.894531 486.730469 C 337.476562 494.226562 339.707031 502.109375 341.519531 509.957031 C 342.621094 514.011719 343.28125 518.140625 343.5 522.339844 C 343.714844 526.535156 343.488281 530.710938 342.8125 534.859375 C 340.648438 548.6875 337.511719 562.289062 333.394531 575.664062 C 332.859375 579.058594 331.953125 582.347656 330.671875 585.535156 C 327.535156 596.554688 324.292969 607.367188 320.523438 618.214844 L 309.085938 651.835938 C 305.597656 662.296875 301.726562 672.761719 298.96875 683.644531 C 297.492188 689.109375 296.328125 694.644531 295.484375 700.246094 C 294.855469 705.128906 292.9375 712.136719 294.820312 716.847656 C 298.691406 710.394531 298.308594 701.8125 299.492188 694.59375 C 302.132812 682.546875 305.546875 670.722656 309.746094 659.125 L 334.511719 583.476562 C 334.835938 581.875 335.625 580.546875 336.882812 579.5 C 338.347656 578.789062 339.878906 578.570312 341.484375 578.839844 C 349.519531 578.589844 357.21875 576.847656 364.574219 573.605469 C 380.546875 567.679688 396.371094 561.433594 412.042969 554.878906 C 439.246094 543.507812 467.007812 530.464844 485.769531 507.621094 C 499.09375 491.472656 507.394531 470.964844 523.613281 457.78125 C 535.714844 447.945312 551.023438 443.167969 565.953125 438.84375 C 543.699219 429.53125 515.484375 427.753906 497.558594 443.898438 C 494.773438 446.847656 491.679688 449.429688 488.28125 451.644531 C 482.214844 454.78125 474.957031 453.597656 468.15625 453.421875 C 447.683594 452.828125 427.875 462 412.074219 475.011719 C 396.277344 488.019531 384.175781 504.761719 372.386719 521.605469 C 359.832031 539.8125 347.867188 558.414062 336.5 577.410156 L 342.042969 548.738281 C 344.207031 539.535156 345.8125 530.234375 346.855469 520.839844 C 346.871094 520.664062 346.871094 520.488281 346.855469 520.316406 C 347.691406 516.648438 348.25 512.941406 348.53125 509.191406 C 349.878906 498.378906 351.144531 487.554688 352.332031 476.71875 C 354.878906 453.210938 358.226562 429.460938 361.46875 405.917969 C 362.515625 398.28125 363.527344 390.609375 364.574219 382.96875 C 364.574219 382.167969 364.574219 381.332031 365.515625 380.703125 C 370.773438 376.59375 376.585938 373.535156 382.953125 371.53125 C 388.8125 370.066406 394.777344 369.367188 400.566406 367.832031 C 409.601562 365.496094 418.457031 362.429688 427.5625 360.335938 C 436.132812 358.882812 444.5625 356.835938 452.847656 354.195312 C 461.957031 350.554688 470.09375 345.378906 477.261719 338.675781 C 487.789062 329.316406 496.75 318.644531 504.152344 306.660156 C 508.613281 299.453125 512.882812 292.128906 516.949219 284.6875 C 518.972656 280.957031 520.960938 277.222656 522.914062 273.457031 C 524.867188 269.691406 525.601562 266.796875 527.132812 263.585938 C 528.949219 259.820312 530.867188 256.125 532.890625 252.496094 C 535.480469 247.722656 538.367188 243.132812 541.542969 238.726562 C 544.714844 234.316406 548.15625 230.128906 551.863281 226.15625 C 555.570312 222.183594 559.511719 218.464844 563.691406 214.992188 C 567.871094 211.523438 572.25 208.328125 576.832031 205.414062 C 578.683594 204.121094 579.484375 202.9375 579.207031 202.238281 Z M 530.378906 46.375 C 530.378906 46.375 530.378906 46.339844 530.378906 46.375 Z M 415.980469 202.554688 C 419.46875 191.390625 419.226562 179.671875 421.597656 168.269531 C 423.253906 160.328125 425.664062 152.621094 428.828125 145.152344 C 431.988281 137.679688 435.847656 130.585938 440.394531 123.871094 L 447.371094 114.90625 C 457.171875 105.351562 466.65625 95.515625 476.980469 86.519531 C 481.445312 82.613281 487.445312 79.542969 492.1875 76.054688 C 498.257812 71.554688 504.394531 67.125 510.394531 62.488281 C 513.496094 60.082031 516.601562 57.640625 519.601562 55.09375 C 522.367188 52.386719 525.273438 49.839844 528.320312 47.457031 C 526.324219 52.03125 523.628906 56.144531 520.230469 59.800781 C 517.195312 63.640625 514.578125 67.894531 511.476562 71.660156 C 508.371094 75.425781 504.847656 79.332031 501.640625 83.273438 C 489.152344 98.445312 478.96875 115.324219 466.308594 130.429688 C 458.527344 139.125 451.550781 148.421875 445.382812 158.328125 C 439.976562 167.710938 433.734375 176.535156 427.664062 185.5 C 424.644531 189.960938 421.949219 194.609375 419.574219 199.449219 C 417.273438 202.203125 416.085938 206.425781 413.820312 208.726562 C 414.703125 207.042969 415.308594 205.261719 415.632812 203.390625 Z M 411.972656 214.0625 C 413.679688 211.550781 415.074219 208.796875 416.785156 206.320312 C 419.398438 202.414062 422.050781 198.542969 424.703125 194.671875 C 429.863281 187.03125 435.164062 179.394531 440.046875 171.652344 C 448.277344 158.886719 455.847656 146.085938 465.226562 134.054688 C 474.609375 122.023438 483.816406 109.433594 493.128906 97.050781 C 497.734375 90.878906 502.40625 84.703125 507.082031 78.601562 C 513.875 70.535156 520.152344 62.082031 525.914062 53.246094 C 527.132812 51.042969 528.621094 49.046875 530.378906 47.246094 C 530.578125 47.003906 530.835938 46.851562 531.144531 46.792969 C 531.878906 46.792969 532.332031 47.628906 532.226562 48.328125 C 531.425781 52.511719 526.820312 55.6875 526.820312 60.011719 C 526.820312 63.324219 523.785156 68.347656 522.636719 71.484375 C 521.484375 74.625 520.089844 78.636719 519.148438 82.261719 C 516.8125 90.074219 514.859375 97.992188 512.972656 105.910156 C 510.753906 116.1875 508.011719 126.324219 504.742188 136.320312 C 503.226562 141.160156 501.261719 145.8125 498.847656 150.273438 C 496.09375 154.910156 492.816406 159.199219 490.339844 164.015625 L 484.375 170.363281 C 478.285156 177.210938 471.582031 183.402344 464.277344 188.933594 C 456.972656 194.46875 449.195312 199.242188 440.953125 203.25 C 436.28125 205.414062 431.398438 206.738281 426.828125 209.25 C 421.65625 212.003906 416.644531 215.027344 411.796875 218.316406 C 412.210938 218.042969 412.59375 217.726562 412.949219 217.375 C 411.308594 218.316406 408.066406 219.121094 410.332031 216.292969 C 410.925781 215.5625 411.449219 214.828125 411.972656 214.0625 Z M 374.792969 317.542969 C 374.808594 317.4375 374.808594 317.332031 374.792969 317.226562 Z M 492.921875 454.78125 C 494.722656 452.414062 496.707031 450.207031 498.867188 448.160156 C 501.023438 446.113281 503.335938 444.253906 505.792969 442.578125 C 508.253906 440.90625 510.832031 439.4375 513.527344 438.179688 C 516.226562 436.921875 519.003906 435.886719 521.867188 435.078125 C 524.976562 434.246094 528.132812 433.699219 531.339844 433.441406 C 534.546875 433.179688 537.753906 433.210938 540.953125 433.527344 C 544.15625 433.847656 547.304688 434.449219 550.394531 435.335938 C 553.488281 436.222656 556.476562 437.382812 559.359375 438.808594 C 558.734375 438.753906 558.105469 438.753906 557.476562 438.808594 C 554.375 439.210938 551.316406 439.835938 548.308594 440.691406 C 545.296875 441.546875 542.367188 442.617188 539.515625 443.90625 C 536.664062 445.191406 533.925781 446.683594 531.292969 448.378906 C 528.664062 450.074219 526.171875 451.953125 523.820312 454.015625 C 514.4375 463.503906 506.195312 473.894531 499.09375 485.195312 C 485.769531 504.691406 468.855469 523.976562 447.195312 534.371094 C 454.171875 525.652344 462.753906 518.1875 468.125 508.421875 C 472.097656 501.132812 473.84375 492.902344 476.703125 485.125 C 480.433594 474.113281 485.839844 464 492.921875 454.78125 Z M 354.773438 553.832031 C 359.445312 544.972656 366.246094 537.371094 371.339844 528.789062 C 374.941406 522.277344 378.882812 515.976562 383.164062 509.886719 C 387.996094 503.859375 393.207031 498.175781 398.789062 492.832031 C 409.53125 482.019531 421.386719 471.242188 435.234375 464.476562 C 443.289062 460.519531 451.75 457.871094 460.625 456.527344 C 469.238281 455.234375 478.0625 455.722656 486.886719 455.128906 C 484.617188 458.464844 482.621094 461.953125 480.886719 465.59375 C 476.773438 474.730469 475.414062 485.054688 472.097656 494.574219 C 470.179688 499.613281 467.773438 504.402344 464.871094 508.941406 C 461.96875 513.480469 458.632812 517.679688 454.871094 521.535156 C 452.585938 524.039062 450.460938 526.664062 448.488281 529.417969 C 446.570312 532.070312 445.347656 535.277344 442.3125 536.742188 C 427.597656 543.71875 412.984375 551.042969 398.019531 557.667969 C 383.214844 564.105469 368.042969 569.523438 352.507812 573.921875 C 348.710938 575.433594 344.769531 576.179688 340.683594 576.152344 C 347.660156 570.640625 350.726562 562.203125 354.632812 554.738281 Z M 335.730469 575.664062 C 335.84375 575.414062 335.972656 575.167969 336.113281 574.933594 Z M 352.121094 197.148438 Z M 264.234375 174.023438 C 264.023438 172.941406 263.816406 171.863281 263.640625 170.78125 C 262.011719 163.679688 260.976562 156.496094 260.535156 149.226562 C 260.363281 140.3125 259.371094 131.492188 257.566406 122.765625 C 255.761719 114.035156 253.167969 105.546875 249.792969 97.292969 C 249.0625 95.375 247.316406 93.25 249.167969 92.167969 C 253.351562 89.691406 260.398438 94.992188 263.917969 96.738281 C 269.613281 99.578125 275.132812 102.714844 280.484375 106.152344 C 286.320312 109.910156 291.585938 114.335938 296.285156 119.441406 C 301.308594 124.953125 306.363281 130.429688 311.28125 136.042969 C 316.351562 141.609375 321.097656 147.433594 325.523438 153.523438 C 329.949219 159.609375 334.027344 165.925781 337.761719 172.460938 C 341.492188 179 344.851562 185.722656 347.839844 192.628906 C 350.832031 199.539062 353.433594 206.589844 355.644531 213.785156 C 359.503906 226.234375 362.121094 238.941406 363.492188 251.902344 C 364.070312 258.355469 364.070312 264.808594 363.492188 271.261719 C 362.441406 277.320312 362.300781 283.398438 363.074219 289.5 L 364.15625 295.117188 C 364.644531 297.59375 359.445312 293.265625 358.679688 292.640625 C 354.007812 288.734375 350.136719 283.921875 344.554688 281.164062 C 339.984375 278.933594 335.035156 277.957031 330.605469 275.480469 C 325.910156 272.769531 321.585938 269.5625 317.628906 265.855469 C 305.988281 255.980469 295.734375 244.832031 286.867188 232.40625 C 278.792969 219.851562 272.734375 206.390625 268.699219 192.019531 C 266.847656 186.089844 265.316406 180.058594 264.234375 174.023438 Z M 252.6875 408.324219 Z M 328.894531 474.589844 C 327.953125 474.171875 327.046875 473.753906 326.453125 473.40625 C 324.453125 472.195312 322.5 470.941406 320.59375 469.640625 C 316.582031 466.953125 312.710938 464.128906 308.945312 461.09375 C 301.65625 455.199219 294.996094 448.539062 288.261719 441.980469 C 285.125 438.914062 282.125 435.667969 278.882812 432.703125 C 271.375 426.1875 264.398438 419.140625 257.957031 411.570312 C 252.359375 403.804688 248.136719 395.351562 245.296875 386.214844 C 236.296875 362.078125 230.578125 334.804688 236.574219 309.242188 C 237.273438 304.765625 238.238281 300.347656 239.472656 295.988281 L 244.808594 281.234375 L 246.445312 276.734375 C 249.65625 268.15625 254.015625 259.855469 255.722656 250.789062 C 257.265625 243.695312 259.21875 236.722656 261.582031 229.863281 C 263.742188 222.890625 267.011719 216.484375 271.382812 210.644531 C 271.382812 213.609375 273.683594 215.839844 273.824219 218.734375 C 274.417969 230.417969 274.695312 242.417969 274.3125 254.101562 C 273.40625 284.09375 279.648438 313.390625 284.777344 342.792969 C 287.847656 359.265625 291.742188 375.542969 296.460938 391.621094 C 298.691406 399.675781 300.609375 407.871094 302.910156 416.035156 C 306.421875 426.617188 310.78125 436.835938 315.992188 446.691406 C 320.761719 457.167969 326.222656 467.269531 332.382812 477 C 331.402344 475.949219 330.238281 475.171875 328.894531 474.660156 Z M 331.441406 478.394531 Z M 331.441406 478.601562 Z M 336.53125 481.183594 C 334.71875 476.824219 331.511719 473.160156 329.347656 468.976562 C 326.664062 463.917969 324.082031 458.792969 321.5 453.699219 C 318.292969 447.316406 315.257812 440.902344 312.152344 434.519531 C 308.960938 428.578125 306.183594 422.453125 303.820312 416.136719 C 301.308594 408.257812 299.738281 400.09375 297.785156 392.039062 C 293.644531 377.097656 290.285156 361.984375 287.707031 346.699219 C 285.507812 331.003906 282.542969 315.308594 279.894531 299.859375 C 278.527344 289.605469 277.804688 279.304688 277.730469 268.957031 C 277.417969 260.519531 277.101562 252.078125 276.71875 243.636719 C 276.371094 236.3125 275.082031 228.816406 275.394531 221.527344 C 275.394531 223.410156 278.148438 226.339844 279.054688 227.875 C 280.359375 230.042969 281.523438 232.289062 282.542969 234.605469 C 286.972656 244.578125 290.671875 254.484375 296.074219 264.003906 C 303.679688 277.398438 312.816406 290.304688 319.339844 304.429688 C 325.929688 319.523438 330.832031 335.148438 334.058594 351.300781 C 335.765625 359.046875 337.230469 366.824219 338.589844 374.636719 C 339.949219 382.148438 340.414062 389.714844 339.984375 397.339844 C 339.289062 404.511719 337.929688 411.558594 335.90625 418.476562 C 334.851562 421.824219 333.964844 425.21875 333.253906 428.660156 C 332.992188 431.796875 332.992188 434.9375 333.253906 438.074219 C 333.253906 443.480469 333.253906 448.886719 333.253906 454.292969 C 333.300781 458.75 333.660156 463.179688 334.335938 467.582031 C 335.3125 472.101562 336.058594 476.65625 336.566406 481.253906 Z M 365.238281 357.929688 C 361.75 377.878906 359.550781 398.070312 357.003906 418.195312 C 355.960938 426.183594 354.773438 434.132812 354.109375 442.15625 C 352.15625 465.523438 348.078125 488.613281 346.125 511.910156 C 345.585938 505.59375 344.632812 499.335938 343.265625 493.144531 C 337.996094 471.695312 337.472656 449.691406 336.289062 427.753906 C 335.976562 426.949219 336.289062 425.800781 336.042969 424.996094 C 335.800781 424.195312 336.042969 422.449219 336.464844 421.230469 C 337.160156 417.359375 338.765625 413.730469 339.253906 409.859375 C 340.921875 405 341.992188 400.007812 342.464844 394.890625 C 342.933594 389.773438 342.792969 384.671875 342.042969 379.585938 C 339.875 362.996094 336.28125 346.722656 331.265625 330.761719 C 325.796875 315.441406 319.320312 300.5625 311.839844 286.117188 C 308.351562 278.933594 304.621094 271.921875 300.921875 264.84375 C 299.039062 261.238281 297.191406 257.613281 295.378906 253.960938 C 293.964844 250.148438 292.257812 246.476562 290.25 242.941406 L 290.703125 243.566406 C 291.261719 244.492188 291.890625 245.363281 292.589844 246.183594 C 298.449219 253.15625 304.648438 259.816406 311.175781 266.167969 C 315.957031 271.253906 321.433594 275.429688 327.605469 278.6875 C 330.84375 280.40625 334.226562 281.765625 337.753906 282.769531 C 341.347656 283.285156 344.835938 284.203125 348.214844 285.523438 C 353.308594 288.351562 357.179688 293.265625 361.820312 296.789062 C 362.488281 297.265625 363.09375 297.8125 363.632812 298.429688 C 363.957031 298.878906 364.238281 299.355469 364.46875 299.859375 C 367.476562 305.46875 370.023438 311.28125 372.105469 317.296875 C 372.855469 319.820312 372.855469 322.34375 372.105469 324.867188 C 369.5625 335.851562 367.292969 346.90625 365.269531 358 Z M 562.917969 210.75 C 556.257812 216.03125 550.226562 221.953125 544.816406 228.515625 C 539.410156 235.074219 534.746094 242.125 530.832031 249.671875 C 516.636719 278.0625 503.976562 306.660156 482.003906 330.167969 C 477.0625 335.796875 471.644531 340.921875 465.75 345.546875 C 453.230469 354.753906 438.09375 355.730469 423.585938 359.21875 C 407.679688 363.054688 391.289062 365.078125 375.875 370.796875 C 374.234375 371.425781 367.363281 374.285156 366.980469 375.890625 C 367.644531 372.3125 368.808594 368.90625 370.46875 365.671875 C 375.1875 357.855469 379.5 349.824219 383.40625 341.570312 C 388.058594 331.433594 392.835938 321.378906 397.742188 311.402344 C 402.28125 301.207031 407.78125 291.558594 414.238281 282.457031 C 421.183594 273.203125 429.25 265.066406 438.441406 258.042969 C 443.476562 254.464844 448.800781 251.398438 454.421875 248.839844 C 460.042969 246.28125 465.851562 244.28125 471.855469 242.835938 C 483.300781 239.101562 494.402344 234.53125 505.160156 229.128906 C 512.136719 225.988281 519.113281 222.605469 526.089844 219.085938 C 539.027344 212.527344 553.398438 209.632812 566.964844 204.574219 C 568.761719 203.65625 570.667969 203.226562 572.683594 203.285156 C 572.335938 204.75 569.996094 205.832031 568.707031 206.773438 C 566.699219 207.992188 564.78125 209.339844 562.953125 210.820312 Z M 562.917969 210.75 " fill-opacity="1" fill-rule="nonzero"/></g></svg>