<svg xmlns="http://www.w3.org/2000/svg" xmlns:xlink="http://www.w3.org/1999/xlink" width="1080" zoomAndPan="magnify" viewBox="0 0 810 809.999993" height="1080" preserveAspectRatio="xMidYMid meet" version="1.0"><defs><clipPath id="32eaa2a0f3"><path d="M 514 154 L 631.617188 154 L 631.617188 246 L 514 246 Z M 514 154 " clip-rule="nonzero"/></clipPath><clipPath id="15462886f2"><path d="M 259 524 L 315 524 L 315 780.75 L 259 780.75 Z M 259 524 " clip-rule="nonzero"/></clipPath></defs><path fill="#064720" d="M 465.109375 248.574219 C 466.753906 214.402344 473.324219 183.515625 484.496094 156.242188 C 495.996094 128.644531 512.425781 104.328125 533.78125 83.628906 L 536.738281 81 L 536.738281 84.613281 C 539.039062 123.058594 535.425781 154.929688 525.898438 180.558594 C 516.367188 206.1875 485.808594 240.03125 464.125 252.515625 L 476.9375 235.101562 C 497.96875 222.617188 513.410156 204.214844 522.609375 179.246094 C 531.8125 154.929688 535.425781 124.699219 533.78125 88.558594 C 513.738281 108.601562 498.625 131.273438 487.78125 157.230469 C 476.609375 184.5 472.011719 212.429688 470.367188 246.273438 Z M 465.109375 248.574219 Z M 465.109375 248.574219 " fill-opacity="1" fill-rule="evenodd"/><path fill="#064720" d="M 530.824219 111.230469 C 528.527344 119.445312 526.554688 126.34375 524.253906 132.257812 C 522.28125 138.171875 520.3125 143.101562 518.339844 146.714844 C 515.382812 148.359375 514.398438 147.699219 515.382812 145.074219 C 517.355469 141.457031 518.996094 136.859375 521.296875 131.273438 C 523.269531 125.359375 525.238281 118.457031 527.539062 110.242188 C 529.183594 108.601562 530.496094 108.929688 530.824219 111.230469 Z M 530.824219 111.230469 Z M 530.824219 111.230469 " fill-opacity="1" fill-rule="evenodd"/><path fill="#064720" d="M 482.851562 224.917969 C 476.28125 238.714844 471.023438 243.316406 472.339844 243.316406 L 465.765625 251.203125 C 460.511719 251.203125 471.683594 240.359375 479.894531 223.273438 C 485.152344 212.101562 492.382812 199.289062 501.582031 180.886719 C 503.554688 176.617188 507.167969 171.6875 509.140625 166.757812 C 510.453125 163.472656 509.46875 159.53125 511.769531 156.574219 C 513.410156 154.601562 512.753906 162.816406 511.769531 166.757812 C 510.78125 171.359375 505.523438 177.601562 503.882812 181.542969 C 494.683594 203.558594 485.808594 219.003906 482.851562 224.917969 Z M 482.851562 224.917969 Z M 482.851562 224.917969 " fill-opacity="1" fill-rule="evenodd"/><path fill="#064720" d="M 409.910156 154.273438 C 431.59375 189.101562 445.066406 223.273438 447.695312 251.203125 C 450.652344 279.789062 443.753906 304.761719 427.652344 326.445312 L 425.023438 324.476562 C 440.796875 303.445312 447.039062 279.132812 444.410156 251.53125 C 441.78125 223.929688 429.953125 193.042969 408.59375 158.542969 Z M 409.910156 154.273438 Z M 409.910156 154.273438 " fill-opacity="1" fill-rule="evenodd"/><g clip-path="url(#32eaa2a0f3)"><path fill="#064720" d="M 575.511719 228.859375 C 567.296875 232.144531 558.425781 234.773438 548.570312 237.074219 C 542.984375 238.386719 536.738281 239.703125 530.496094 241.015625 L 530.824219 241.015625 C 549.882812 242.660156 559.410156 243.316406 568.941406 239.703125 C 578.46875 236.089844 588.65625 227.875 608.699219 211.773438 C 612.640625 208.488281 617.242188 204.875 622.167969 201.257812 C 608.039062 201.257812 592.597656 204.542969 576.496094 210.789062 C 560.070312 217.03125 542.652344 226.230469 524.253906 238.714844 C 532.46875 237.074219 540.355469 235.429688 547.910156 233.789062 C 557.441406 231.488281 566.3125 228.859375 574.527344 225.902344 C 576.167969 225.246094 578.140625 225.246094 575.511719 228.859375 Z M 516.039062 240.03125 C 536.738281 219.660156 555.46875 202.574219 571.898438 188.445312 C 588.65625 174.644531 603.113281 163.800781 615.597656 156.242188 L 618.226562 154.601562 L 617.898438 157.558594 C 617.898438 161.5 614.941406 167.742188 609.027344 176.285156 C 604.097656 183.515625 597.199219 192.386719 587.996094 203.230469 C 601.796875 199.289062 614.613281 197.316406 626.769531 197.972656 L 631.371094 197.972656 L 627.753906 200.929688 C 621.511719 206.1875 615.925781 210.460938 610.996094 214.402344 C 590.296875 230.832031 580.113281 239.046875 570.253906 242.660156 C 559.738281 246.601562 550.210938 245.945312 530.496094 244.300781 C 526.554688 243.972656 520.96875 245.617188 516.367188 245.289062 C 514.398438 245.289062 512.753906 241.671875 516.039062 240.03125 Z M 575.183594 207.5 C 577.484375 206.84375 579.785156 205.859375 581.753906 205.203125 C 592.597656 192.714844 600.8125 182.203125 606.398438 174.316406 C 610.011719 168.730469 612.640625 164.457031 613.625 161.171875 C 602.453125 168.402344 588.984375 178.585938 574.199219 191.074219 C 561.054688 202.246094 546.597656 215.058594 531.152344 230.171875 C 546.597656 220.316406 561.382812 213.085938 575.183594 207.5 Z M 575.183594 207.5 Z M 575.183594 207.5 " fill-opacity="1" fill-rule="evenodd"/></g><path fill="#064720" d="M 583.726562 221.628906 C 583.726562 224.257812 581.097656 223.601562 579.785156 222.289062 C 577.484375 221.960938 584.382812 211.773438 583.726562 221.628906 Z M 583.726562 221.628906 Z M 583.726562 221.628906 " fill-opacity="1" fill-rule="evenodd"/><path fill="#064720" d="M 411.882812 158.214844 C 400.050781 193.375 395.453125 224.585938 398.082031 252.515625 C 400.710938 280.117188 410.566406 304.101562 427.652344 324.476562 L 425.023438 326.445312 C 407.609375 305.746094 397.421875 281.101562 394.796875 252.84375 C 392.167969 224.585938 398.082031 189.757812 409.910156 154.273438 Z M 411.882812 158.214844 Z M 411.882812 158.214844 " fill-opacity="1" fill-rule="evenodd"/><path fill="#064720" d="M 413.523438 160.1875 C 413.851562 168.730469 414.507812 175.628906 416.152344 181.214844 C 417.464844 186.800781 419.109375 190.746094 421.410156 193.042969 C 422.394531 195.34375 421.410156 196 419.109375 195.34375 C 416.152344 192.386719 414.179688 188.117188 412.539062 182.203125 C 411.222656 176.285156 410.238281 169.058594 409.910156 160.1875 Z M 413.523438 160.1875 Z M 413.523438 160.1875 " fill-opacity="1" fill-rule="evenodd"/><path fill="#064720" d="M 422.722656 197.644531 C 422.066406 201.917969 421.082031 204.214844 421.410156 206.1875 C 421.738281 207.832031 422.066406 208.816406 422.722656 209.144531 C 422.394531 210.128906 424.039062 213.417969 421.738281 212.101562 C 419.765625 211.773438 418.453125 209.800781 418.125 206.84375 C 417.464844 204.214844 418.78125 201.585938 419.4375 197.316406 C 421.082031 196.332031 422.394531 196 422.722656 197.644531 Z M 422.722656 197.644531 Z M 422.722656 197.644531 " fill-opacity="1" fill-rule="evenodd"/><path fill="#064720" d="M 422.066406 221.628906 L 425.351562 225.246094 C 426.339844 227.546875 425.351562 228.203125 423.050781 227.546875 L 419.765625 224.257812 C 418.78125 221.960938 419.4375 220.972656 422.066406 221.628906 Z M 422.066406 221.628906 Z M 422.066406 221.628906 " fill-opacity="1" fill-rule="evenodd"/><path fill="#064720" d="M 422.722656 233.789062 C 421.738281 239.046875 426.667969 250.214844 426.339844 252.84375 C 426.996094 255.800781 425.023438 257.773438 424.367188 254.816406 C 424.695312 250.875 419.4375 240.03125 419.765625 234.773438 C 419.765625 232.800781 420.425781 231.488281 422.722656 233.789062 Z M 422.722656 233.789062 Z M 422.722656 233.789062 " fill-opacity="1" fill-rule="evenodd"/><path fill="#064720" d="M 426.667969 257.117188 C 426.007812 268.945312 426.996094 276.175781 428.308594 283.402344 C 429.625 292.601562 431.265625 302.460938 427.980469 324.476562 L 424.695312 323.816406 C 427.980469 302.460938 426.339844 292.929688 425.023438 283.730469 C 423.710938 276.503906 424.039062 269.273438 424.695312 256.789062 C 424.695312 251.203125 426.996094 250.546875 426.667969 257.117188 Z M 426.667969 257.117188 Z M 426.667969 257.117188 " fill-opacity="1" fill-rule="evenodd"/><path fill="#064720" d="M 373.765625 429.621094 C 381.980469 362.917969 418.78125 344.191406 456.894531 325.789062 C 473.980469 317.246094 491.394531 308.703125 506.511719 295.230469 C 510.78125 291.945312 509.140625 297.53125 509.140625 297.53125 C 502.566406 310.019531 496.980469 321.847656 492.710938 332.6875 C 488.4375 343.53125 485.152344 353.71875 483.183594 363.246094 C 475.296875 386.246094 456.238281 395.117188 429.625 407.605469 C 412.210938 415.820312 391.507812 425.347656 368.835938 441.449219 L 366.867188 438.820312 C 389.867188 422.390625 410.566406 412.863281 428.308594 404.648438 C 453.9375 392.488281 472.667969 383.945312 479.894531 362.261719 C 482.195312 352.734375 485.152344 342.546875 489.753906 331.375 C 493.039062 322.503906 497.3125 313.304688 502.238281 303.117188 C 488.4375 313.960938 473.324219 321.1875 458.210938 328.746094 C 421.082031 346.816406 385.265625 364.5625 377.050781 428.960938 Z M 373.765625 429.621094 Z M 373.765625 429.621094 " fill-opacity="1" fill-rule="evenodd"/><path fill="#064720" d="M 436.523438 375.074219 C 445.394531 367.847656 450.980469 362.917969 453.28125 359.960938 C 453.609375 359.632812 457.554688 355.359375 457.554688 355.359375 C 460.839844 354.703125 456.894531 360.945312 455.910156 362.261719 C 453.28125 365.21875 447.695312 370.476562 438.824219 377.703125 C 436.523438 378.03125 435.867188 377.046875 436.523438 375.074219 Z M 436.523438 375.074219 Z M 436.523438 375.074219 " fill-opacity="1" fill-rule="evenodd"/><path fill="#064720" d="M 457.554688 353.71875 C 458.539062 351.417969 459.523438 349.773438 461.167969 348.132812 C 462.808594 346.488281 464.78125 345.503906 466.753906 344.519531 C 468.722656 344.519531 470.367188 344.519531 468.066406 347.804688 C 466.097656 348.460938 464.78125 349.445312 463.46875 350.433594 C 462.480469 351.746094 461.496094 353.390625 460.839844 355.03125 Z M 457.554688 353.71875 Z M 457.554688 353.71875 " fill-opacity="1" fill-rule="evenodd"/><path fill="#064720" d="M 468.722656 341.890625 C 477.265625 332.03125 483.183594 324.476562 486.46875 319.546875 C 487.78125 317.246094 488.4375 315.601562 488.769531 314.289062 C 489.097656 312.976562 488.769531 313.304688 487.78125 312.976562 L 489.753906 310.019531 C 490.082031 310.019531 490.410156 310.347656 490.738281 310.347656 C 492.054688 311.332031 492.382812 312.976562 492.054688 314.945312 C 491.726562 316.589844 490.738281 318.5625 489.097656 321.1875 C 486.140625 326.445312 480.226562 334.003906 471.351562 344.191406 C 469.054688 344.847656 468.722656 343.203125 468.722656 341.890625 Z M 468.722656 341.890625 Z M 468.722656 341.890625 " fill-opacity="1" fill-rule="evenodd"/><path fill="#064720" d="M 434.882812 383.289062 C 418.78125 393.148438 405.308594 403.003906 394.464844 412.535156 C 383.625 422.0625 375.082031 431.589844 369.496094 441.121094 L 366.539062 439.148438 C 372.453125 429.621094 380.996094 419.761719 392.167969 409.90625 C 403.339844 400.046875 417.136719 390.191406 433.238281 380.332031 C 435.867188 379.675781 436.523438 380.660156 434.882812 383.289062 Z M 434.882812 383.289062 Z M 434.882812 383.289062 " fill-opacity="1" fill-rule="evenodd"/><path fill="#064720" d="M 294.578125 388.21875 C 291.621094 371.789062 294.90625 352.074219 298.195312 339.261719 C 300.492188 329.074219 302.136719 318.890625 301.480469 308.375 C 301.152344 300.160156 300.492188 292.273438 296.878906 284.71875 C 292.9375 276.503906 286.363281 267.632812 277.820312 258.429688 C 272.566406 253.175781 268.292969 246.273438 264.351562 238.386719 C 261.394531 232.472656 259.09375 226.230469 256.792969 219.003906 C 252.851562 249.886719 252.191406 276.832031 255.148438 299.175781 C 258.4375 323.488281 265.664062 342.875 276.507812 357.332031 L 276.835938 357.332031 C 282.09375 364.890625 286.035156 372.445312 288.992188 380.332031 C 292.277344 387.890625 293.921875 395.777344 294.578125 403.660156 L 291.292969 403.992188 C 290.636719 396.433594 288.992188 388.875 286.035156 381.320312 C 283.078125 374.089844 279.136719 366.53125 273.878906 359.304688 C 262.378906 344.519531 255.148438 324.476562 251.863281 299.503906 C 248.578125 274.859375 249.5625 245.289062 254.492188 210.460938 C 255.808594 200.273438 257.777344 210.128906 257.777344 210.128906 C 260.40625 220.316406 263.691406 229.1875 267.308594 237.074219 C 270.921875 244.632812 275.191406 250.875 280.121094 256.132812 C 289.320312 265.660156 295.894531 274.859375 299.835938 283.402344 C 304.109375 291.945312 304.4375 300.488281 304.765625 308.375 C 305.421875 318.890625 304.109375 329.074219 301.480469 340.246094 C 298.195312 352.402344 294.90625 365.875 297.535156 381.320312 Z M 294.578125 388.21875 Z M 294.578125 388.21875 " fill-opacity="1" fill-rule="evenodd"/><path fill="#064720" d="M 268.949219 244.960938 C 273.550781 266.972656 277.492188 283.074219 280.449219 293.589844 C 282.75 302.132812 285.050781 305.089844 285.378906 305.089844 C 288.992188 311.003906 282.09375 311.332031 277.164062 294.246094 C 274.207031 284.058594 269.277344 260.730469 264.679688 238.714844 Z M 268.949219 244.960938 Z M 268.949219 244.960938 " fill-opacity="1" fill-rule="evenodd"/><path fill="#064720" d="M 287.351562 314.617188 C 286.695312 319.21875 287.679688 323.160156 288.664062 327.105469 C 289.320312 329.402344 289.652344 331.375 289.980469 333.675781 C 290.964844 340.574219 291.621094 348.789062 291.949219 357.660156 C 291.949219 360.289062 292.277344 362.917969 292.277344 365.875 C 292.9375 379.675781 290.964844 386.574219 290.964844 386.574219 L 287.679688 385.589844 C 287.679688 385.589844 289.652344 379.347656 288.992188 366.203125 C 288.664062 363.246094 288.664062 360.617188 288.664062 357.988281 C 288.007812 349.117188 287.679688 341.230469 286.695312 334.003906 C 286.363281 332.03125 285.707031 330.0625 285.378906 328.089844 C 284.394531 323.816406 283.078125 319.21875 283.734375 314.289062 C 284.722656 311.003906 286.363281 311.332031 287.351562 314.617188 Z M 287.351562 314.617188 Z M 287.351562 314.617188 " fill-opacity="1" fill-rule="evenodd"/><path fill="#064720" d="M 298.195312 463.132812 C 282.75 387.890625 304.109375 348.789062 321.523438 320.203125 C 331.707031 303.445312 340.25 289.316406 338.9375 271.246094 C 338.9375 264.015625 341.238281 269.273438 342.222656 270.589844 C 344.851562 280.117188 346.496094 289.644531 347.152344 298.515625 C 347.480469 306.730469 346.824219 314.289062 344.523438 320.859375 L 341.238281 319.875 C 343.207031 313.632812 343.867188 306.402344 343.535156 298.515625 C 343.535156 293.589844 342.878906 288.660156 341.894531 283.402344 C 339.59375 296.875 332.367188 308.703125 324.480469 321.847656 C 307.394531 350.105469 287.023438 390.847656 302.136719 464.449219 Z M 298.195312 463.132812 Z M 298.195312 463.132812 " fill-opacity="1" fill-rule="evenodd"/><path fill="#064720" d="M 302.136719 468.71875 C 301.808594 459.847656 304.109375 449.332031 309.363281 437.832031 C 313.964844 427.320312 321.195312 415.492188 331.050781 403.003906 C 337.621094 394.460938 342.222656 382.960938 344.195312 368.503906 C 345.835938 355.03125 345.179688 338.605469 341.566406 319.546875 L 344.851562 318.890625 C 348.464844 338.273438 349.121094 355.03125 347.480469 369.160156 C 345.507812 383.945312 340.910156 396.105469 333.679688 404.976562 C 324.152344 417.132812 316.921875 428.632812 312.324219 439.148438 C 307.394531 450.320312 305.421875 460.175781 305.421875 468.71875 Z M 302.136719 468.71875 Z M 302.136719 468.71875 " fill-opacity="1" fill-rule="evenodd"/><path fill="#064720" d="M 289.320312 444.078125 C 290.308594 441.121094 286.035156 425.019531 276.179688 396.105469 L 276.179688 395.777344 C 273.878906 386.90625 269.605469 378.691406 263.035156 372.117188 C 256.792969 365.546875 248.578125 359.304688 237.734375 356.019531 C 233.136719 354.703125 229.191406 354.046875 225.90625 351.417969 C 224.921875 350.761719 223.933594 350.105469 223.277344 349.117188 C 234.121094 394.789062 260.078125 426.332031 283.40625 432.90625 L 282.421875 436.191406 C 256.136719 428.632812 228.535156 393.148438 217.691406 340.246094 C 217.035156 336.960938 219.664062 337.945312 220.976562 339.261719 C 222.621094 343.53125 224.921875 346.488281 227.878906 348.789062 C 231.164062 351.089844 234.777344 351.417969 238.394531 352.734375 C 248.90625 355.691406 258.105469 361.933594 265.664062 369.820312 C 272.234375 377.046875 276.835938 385.261719 279.464844 395.117188 C 289.652344 424.691406 293.921875 441.449219 292.277344 445.390625 Z M 289.320312 444.078125 Z M 289.320312 444.078125 " fill-opacity="1" fill-rule="evenodd"/><path fill="#064720" d="M 265.664062 396.105469 C 270.265625 408.261719 274.535156 418.117188 279.136719 425.347656 C 283.40625 432.578125 287.679688 437.503906 291.621094 439.804688 L 289.980469 442.761719 C 285.378906 440.132812 280.777344 434.875 276.179688 426.992188 C 271.578125 419.761719 266.980469 409.574219 262.378906 397.417969 C 262.707031 394.789062 263.691406 394.132812 265.664062 396.105469 Z M 265.664062 396.105469 Z M 265.664062 396.105469 " fill-opacity="1" fill-rule="evenodd"/><path fill="#064720" d="M 249.5625 370.148438 L 258.105469 385.261719 C 258.765625 386.90625 258.105469 388.21875 255.148438 386.90625 L 246.9375 371.789062 C 246.605469 369.488281 247.59375 368.832031 249.5625 370.148438 Z M 249.5625 370.148438 Z M 249.5625 370.148438 " fill-opacity="1" fill-rule="evenodd"/><path fill="#064720" d="M 318.238281 565.976562 C 318.566406 547.90625 325.792969 532.136719 339.265625 518.992188 L 339.59375 518.992188 C 340.578125 518.007812 343.207031 516.363281 346.824219 514.390625 C 351.75 512.09375 358.652344 508.476562 367.851562 503.878906 C 371.136719 498.621094 377.050781 494.019531 386.25 489.75 C 395.125 485.804688 407.28125 482.191406 422.394531 479.234375 L 422.722656 479.234375 C 430.28125 478.90625 437.179688 476.605469 444.082031 472.003906 C 450.652344 467.078125 457.222656 460.175781 463.140625 450.976562 L 467.410156 444.40625 L 466.425781 451.960938 C 461.824219 484.820312 447.695312 510.449219 424.039062 529.179688 C 400.710938 547.90625 367.851562 559.078125 325.464844 563.351562 L 328.09375 558.75 C 369.824219 554.476562 399.066406 544.621094 422.066406 526.550781 C 443.09375 509.792969 456.238281 487.449219 461.824219 458.863281 C 456.894531 465.433594 451.636719 470.691406 446.054688 474.632812 C 438.824219 479.5625 431.265625 482.191406 423.050781 482.519531 C 408.265625 485.476562 396.4375 489.089844 387.566406 493.035156 C 379.023438 496.976562 373.4375 501.25 370.808594 505.847656 L 370.480469 506.507812 L 369.824219 506.507812 C 360.292969 511.433594 353.066406 515.050781 348.464844 517.347656 C 344.195312 519.648438 342.222656 519.648438 342.222656 519.976562 L 342.222656 520.964844 L 341.894531 521.292969 C 328.75 534.105469 321.851562 548.890625 321.523438 565.976562 Z M 318.238281 565.976562 Z M 318.238281 565.976562 " fill-opacity="1" fill-rule="evenodd"/><path fill="#064720" d="M 447.367188 487.121094 C 443.753906 487.449219 441.125 488.761719 439.152344 490.40625 C 437.511719 492.046875 436.851562 494.347656 436.851562 496.976562 C 435.867188 499.933594 433.566406 499.277344 433.566406 496.976562 C 433.566406 493.363281 434.550781 490.40625 436.851562 488.105469 C 439.152344 485.804688 442.4375 484.492188 446.710938 483.835938 C 449.011719 483.835938 449.011719 485.148438 447.367188 487.121094 Z M 447.367188 487.121094 Z M 447.367188 487.121094 " fill-opacity="1" fill-rule="evenodd"/><path fill="#064720" d="M 413.523438 509.792969 C 406.625 515.378906 400.710938 520.636719 393.152344 524.25 C 385.265625 528.191406 375.410156 527.535156 368.507812 532.792969 L 320.867188 569.921875 L 317.90625 566.636719 C 334.007812 553.820312 351.09375 542.320312 367.195312 529.507812 C 374.09375 524.25 383.625 525.234375 391.507812 521.292969 C 399.066406 517.675781 404.652344 512.75 411.550781 507.164062 C 416.480469 504.535156 415.496094 507.820312 413.523438 509.792969 Z M 413.523438 509.792969 Z M 413.523438 509.792969 " fill-opacity="1" fill-rule="evenodd"/><path fill="#064720" d="M 330.394531 360.289062 C 328.09375 370.148438 324.480469 377.046875 325.792969 380.003906 C 318.566406 381.648438 326.121094 366.203125 327.109375 359.960938 C 329.078125 351.746094 325.136719 333.347656 336.308594 327.761719 C 328.75 339.589844 332.035156 354.375 330.394531 360.289062 Z M 330.394531 360.289062 Z M 330.394531 360.289062 " fill-opacity="1" fill-rule="evenodd"/><path fill="#064720" d="M 324.808594 387.5625 C 322.835938 391.175781 321.195312 395.117188 319.878906 399.390625 C 318.566406 403.660156 317.578125 408.261719 316.921875 412.863281 C 316.59375 415.820312 315.609375 419.105469 314.292969 423.375 C 312.652344 427.320312 310.351562 431.589844 308.378906 436.847656 C 307.394531 439.476562 307.066406 442.761719 306.40625 446.375 C 306.078125 449.992188 305.421875 453.933594 304.765625 457.875 L 301.480469 457.546875 C 301.808594 453.277344 302.464844 449.332031 303.121094 445.71875 C 303.78125 442.433594 304.109375 438.820312 305.09375 435.535156 C 306.738281 430.933594 309.363281 426.664062 311.007812 422.0625 C 312.324219 418.449219 313.308594 415.160156 313.636719 412.203125 C 314.292969 407.277344 315.28125 402.675781 316.59375 398.40625 C 317.90625 394.132812 319.878906 389.863281 321.851562 385.917969 C 324.480469 383.617188 325.136719 384.605469 324.808594 387.5625 Z M 324.808594 387.5625 Z M 324.808594 387.5625 " fill-opacity="1" fill-rule="evenodd"/><path fill="#064720" d="M 472.339844 245.289062 C 465.765625 254.816406 461.824219 263.6875 457.222656 272.558594 C 452.953125 281.101562 445.722656 288.660156 443.09375 296.875 C 435.867188 294.574219 449.667969 275.84375 451.96875 270.917969 C 456.566406 261.71875 461.167969 251.203125 467.738281 241.671875 Z M 472.339844 245.289062 Z M 472.339844 245.289062 " fill-opacity="1" fill-rule="evenodd"/><path fill="#064720" d="M 520.3125 244.632812 C 501.910156 248.246094 485.152344 254.160156 472.996094 261.71875 C 461.167969 269.601562 445.722656 293.261719 440.136719 305.417969 L 443.425781 289.972656 C 449.339844 277.488281 457.554688 265.988281 470.039062 257.773438 C 482.523438 249.558594 500.597656 243.644531 519.652344 240.03125 Z M 520.3125 244.632812 Z M 520.3125 244.632812 " fill-opacity="1" fill-rule="evenodd"/><path fill="#064720" d="M 429.953125 323.160156 C 426.007812 328.746094 427.652344 328.746094 426.667969 334.660156 C 425.679688 340.574219 426.667969 340.574219 422.722656 346.488281 L 412.210938 352.734375 C 415.824219 347.148438 419.4375 339.589844 420.09375 334.332031 C 421.082031 328.746094 420.753906 323.488281 419.765625 317.902344 Z M 429.953125 323.160156 Z M 429.953125 323.160156 " fill-opacity="1" fill-rule="evenodd"/><path fill="#064720" d="M 307.066406 454.261719 C 305.75 472.992188 305.75 481.207031 310.679688 493.691406 C 314.949219 503.550781 314.621094 507.164062 315.609375 520.636719 C 331.378906 490.078125 346.496094 462.476562 366.539062 439.148438 L 375.410156 437.175781 C 350.765625 466.417969 333.023438 503.878906 314.292969 541.992188 L 308.707031 530.820312 C 308.707031 514.71875 307.066406 506.175781 302.464844 495.335938 C 297.535156 482.519531 292.609375 469.707031 294.25 450.320312 Z M 307.066406 454.261719 Z M 307.066406 454.261719 " fill-opacity="1" fill-rule="evenodd"/><path fill="#064720" d="M 314.292969 541.992188 C 308.378906 549.878906 304.109375 557.105469 299.507812 566.308594 C 295.238281 575.507812 291.292969 585.363281 288.335938 595.550781 L 281.4375 604.09375 C 284.722656 593.578125 291.949219 574.191406 296.550781 564.664062 C 301.152344 555.464844 306.40625 546.59375 312.652344 538.378906 Z M 314.292969 541.992188 Z M 314.292969 541.992188 " fill-opacity="1" fill-rule="evenodd"/><g clip-path="url(#15462886f2)"><path fill="#064720" d="M 314.292969 538.050781 C 289.320312 584.707031 272.234375 622.164062 266.980469 662.910156 C 266.320312 668.164062 267.308594 672.109375 267.308594 677.367188 C 267.308594 682.292969 268.949219 675.066406 268.949219 677.039062 C 267.964844 687.878906 270.59375 709.238281 270.59375 721.394531 C 270.59375 721.394531 268.292969 706.609375 267.964844 723.039062 C 270.265625 741.109375 270.921875 756.550781 278.480469 772.980469 C 279.136719 774.296875 280.121094 771.996094 281.109375 770.023438 C 287.351562 767.066406 282.75 775.609375 279.792969 779.882812 C 279.136719 780.867188 276.835938 780.867188 275.851562 777.582031 C 261.394531 742.09375 256.792969 703.652344 262.050781 662.578125 C 266.980469 621.179688 285.050781 571.234375 310.351562 524.25 Z M 314.292969 538.050781 Z M 314.292969 538.050781 " fill-opacity="1" fill-rule="evenodd"/></g><path fill="#064720" d="M 281.109375 771.339844 C 276.835938 759.507812 273.878906 745.710938 271.578125 729.609375 C 269.605469 713.835938 268.621094 696.09375 268.949219 676.378906 C 269.605469 666.195312 271.578125 655.351562 273.550781 644.507812 L 274.535156 639.90625 C 275.523438 634.980469 275.523438 630.707031 275.851562 626.765625 C 276.179688 611.980469 273.878906 597.191406 320.535156 563.019531 L 320.535156 569.59375 C 279.792969 602.777344 279.464844 612.964844 279.136719 627.09375 C 279.136719 631.035156 278.808594 635.308594 277.820312 640.566406 L 276.835938 645.164062 C 274.863281 656.007812 272.894531 666.523438 272.234375 676.707031 C 272.234375 696.09375 272.894531 713.835938 275.191406 729.28125 C 277.164062 744.722656 280.121094 758.523438 284.394531 770.023438 Z M 281.109375 771.339844 Z M 281.109375 771.339844 " fill-opacity="1" fill-rule="evenodd"/></svg>